<?xml version="1.0" encoding="UTF-8"?>
<svg width="1025.2" height="612.25" version="1.1" xmlns="http://www.w3.org/2000/svg">
 <title>C:\Users\Antonio\Desktop</title>
 <g transform="translate(-21.531 -20.125)">
  <g fill-rule="evenodd">
   <path d="m329.44 20.125c-170.06 0-307.91 137.06-307.91 306.12 0 169.07 137.84 306.12 307.91 306.12 78.576 0 150.28-29.28 204.69-77.438 4.3256-3.8289 8.5294-7.7817 12.625-11.844 1.3652-1.354 2.722-2.714 4.0625-4.0938h-33.375c1.3408 1.3798 2.6972 2.7397 4.0625 4.0938-1.364-1.3511-2.7241-2.7176-4.0625-4.0938-5.874-6.0396-11.482-12.31-16.844-18.812-1.1832-1.4349-2.3739-2.8873-3.5312-4.3438 1.1594 1.4606 2.345 2.9038 3.5312 4.3438h67.031c4.745-5.76 9.303-11.683 13.625-17.781h-94.25c2.1596 3.0489 4.3596 6.0681 6.625 9.0312-2.2707-2.9666-4.4622-5.9811-6.625-9.0312-5.2802-7.4466-10.236-15.147-14.844-23.062-5.9722-10.258-11.361-20.877-16.125-31.844-1.3082-3.0117-2.5684-6.0329-3.7812-9.0938-1.2054-3.0422-2.3594-6.1298-3.4688-9.2188-2.22-6.1819-4.2696-12.454-6.0938-18.812h182.91c1.7257-6.0156 3.2662-12.12 4.625-18.281h-192.16c1.0187 4.6207 2.15 9.2064 3.375 13.75-1.2275-4.5445-2.3553-9.1246-3.375-13.75-2.0031-9.086-3.6099-18.319-4.7812-27.688-0.12048-0.96359-0.2323-1.9399-0.34375-2.9062 0.11401 0.97448 0.22035 1.9348 0.34375 2.9062 0.37691 2.9672 0.79307 5.9296 1.25 8.875h199.22c0.91431-5.8911 1.6788-11.815 2.25-17.812h-203.72c-0.59049-6.203-0.97495-12.476-1.1875-18.781-0.0585-1.7355-0.0957-3.476-0.125-5.2188-0.0292-1.738-0.0625-3.4738-0.0625-5.2188 0 1.7473 0.0302 3.4795 0.0625 5.2188s0.0666 3.4856 0.125 5.2188h206.09c0.0522-1.5466 0.0934-3.1051 0.125-4.6562 3e-3 -0.1876-3e-3 -0.37553 0-0.5625 9.8e-4 -0.0625-1e-3 -0.12507 0-0.1875 0.0301-1.6769 0.0625-3.3465 0.0625-5.0312 0-2.845-0.0453-5.6735-0.125-8.5-0.2945-10.44-1.121-20.757-2.4375-30.906h-201.34c-0.83646 6.4484-1.4747 12.961-1.9062 19.531-0.10788 1.6426-0.19972 3.2879-0.28125 4.9375-0.0677 1.3696-0.13823 2.7508-0.1875 4.125 0.0481-1.378 0.12111-2.7517 0.1875-4.125 0.0798-1.6509 0.17524-3.2936 0.28125-4.9375 1.2526-19.423 4.3345-38.356 9.0625-56.625 1.6451-6.3567 3.4928-12.623 5.5312-18.812 0.48159-1.4624 0.96569-2.9224 1.4688-4.375 0.49849-1.4394 1.0119-2.8829 1.5312-4.3125-0.52 1.441-1.0317 2.8621-1.5312 4.3125s-0.98839 2.9166-1.4688 4.375h175.97c-1.9215-5.8335-3.9914-11.608-6.25-17.281h-163.47c-0.56462 1.4183-1.1146 2.851-1.6562 4.2812 0.54413-1.4298 1.0913-2.8618 1.6562-4.2812 2.5425-6.3883 5.2959-12.643 8.25-18.812 0.80501-1.6811 1.634-3.3672 2.4688-5.0312 0.8425-1.6795 1.69-3.3382 2.5625-5-0.86706 1.6541-1.7248 3.3285-2.5625 5s-1.6603 3.3429-2.4688 5.0312h146.97c-1.0963-2.2888-2.2254-4.5547-3.375-6.8125-0.54536-1.0692-1.0674-2.1255-1.625-3.1875-0.14296-0.27287-0.29373-0.54012-0.4375-0.8125-0.16521-0.31236-0.33354-0.62493-0.5-0.9375-0.82452-1.5489-1.6491-3.0923-2.5-4.625-0.64509-1.162-1.3083-2.3163-1.9688-3.4688h-126.16c3.6775-6.4205 7.5983-12.693 11.719-18.812 0.9684-1.4382 1.9454-2.8604 2.9375-4.2812 0.98471-1.4102 1.9922-2.8259 3-4.2188 2.0263-2.8004 4.0695-5.5528 6.1875-8.2812 5.0195-6.4661 10.299-12.74 15.812-18.781h46.812c-1.8469-2.0232-3.7259-4.0264-5.625-6-5.6974-5.9209-11.623-11.611-17.781-17.062-54.405-48.157-126.11-77.438-204.69-77.438zm165.47 119.28c-2.1145 2.7239-4.1672 5.4832-6.1875 8.2812-1.0101 1.399-2.0128 2.8025-3 4.2188s-1.9728 2.8488-2.9375 4.2812h102.69c-3.8602-5.7296-7.8949-11.334-12.125-16.781h-78.438zm-54.281 110.34c-1.5591 6.0222-2.9296 12.123-4.125 18.281h195.28c-1.1954-6.1577-2.5659-12.259-4.125-18.281h-187.03zm8.1562 179.44c1.1131 3.1004 2.2606 6.1668 3.4688 9.2188s2.4767 6.0892 3.7812 9.0938h156.22c2.6103-6.0091 5.0229-12.112 7.25-18.312h-170.72zm23.375 50.156c0.83004 1.4258 1.6792 2.838 2.5312 4.25h118.91c3.4102-5.6481 6.6405-11.404 9.6875-17.281h-138.28c2.2841 4.4076 4.6661 8.754 7.1562 13.031zm89.875-353.69c0.74276 0.8503 1.4853 1.704 2.2188 2.5625-0.73256-0.85763-1.4769-1.713-2.2188-2.5625zm26.281 34.781c0.59434 0.915 1.1965 1.8283 1.7812 2.75-0.58628-0.92429-1.1853-1.8324-1.7812-2.75zm4.25 6.75c0.5468 0.89172 1.0872 1.7898 1.625 2.6875-0.53744-0.89742-1.0786-1.796-1.625-2.6875zm16.938 31.625c0.5592 1.2123 1.1126 2.4355 1.6562 3.6562-0.5439-1.2217-1.0968-2.443-1.6562-3.6562zm-8.9688 272.72c-0.3588 0.66011-0.73022 1.3116-1.0938 1.9688 0.36307-0.6565 0.73539-1.3093 1.0938-1.9688zm-10.625 18.031c-0.52995 0.83341-1.056 1.672-1.5938 2.5 0.53796-0.82834 1.0636-1.6662 1.5938-2.5zm-25.656 34.719c-0.73345 0.85848-1.476 1.7122-2.2188 2.5625 0.74186-0.84946 1.4862-1.7049 2.2188-2.5625zm-4.8438 5.5312c-0.88167 0.98353-1.7621 1.9654-2.6562 2.9375 0.89337-0.97144 1.7754-1.9546 2.6562-2.9375zm-6.0312 6.5625c-0.68096 0.71684-1.3747 1.4147-2.0625 2.125 0.68716-0.70978 1.3822-1.4087 2.0625-2.125z" fill="#ff0018"/>
   <path d="m738.84 20.125c-78.576 0-150.28 29.28-204.69 77.438 8.2049 7.2637 15.993 14.975 23.375 23.062h-46.812c-5.5105 6.0388-10.764 12.318-15.781 18.781h78.406c4.2301 5.4477 8.2648 11.052 12.125 16.781h-102.69c-4.1208 6.12-8.041 12.391-11.719 18.812h126.16c3.7071 6.469 7.1716 13.091 10.406 19.844h-146.97c-2.9488 6.159-5.7113 12.435-8.25 18.812h163.47c2.2586 5.6728 4.3285 11.448 6.25 17.281h-175.97c-3.9681 12.051-7.2043 24.436-9.6562 37.094 1.1954-6.158 2.5659-12.259 4.125-18.281h187.03c1.5591 6.022 2.9296 12.124 4.125 18.281h-195.28c-1.5092 7.7907-2.7222 15.667-3.625 23.656 0.18443-1.6201 0.38464-3.2317 0.59375-4.8438h201.34c1.6729 12.897 2.5625 26.053 2.5625 39.406 0 3.495-0.0706 6.9709-0.1875 10.438h-206.09c0.2128 6.3184 0.62641 12.566 1.2188 18.781h203.69c-0.57115 5.9972-1.3357 11.921-2.25 17.812h-199.22c0.98386 6.3441 2.1619 12.603 3.5312 18.812h192.16c-1.3588 6.1608-2.8993 12.266-4.625 18.281h-182.91c1.8255 6.3641 3.8717 12.625 6.0938 18.812h170.72c-2.2271 6.2008-4.6397 12.303-7.25 18.312h-156.22c5.4246 12.487 11.674 24.534 18.656 36.094-3.4083-5.6481-6.642-11.404-9.6875-17.281h138.28c-3.047 5.8768-6.2773 11.633-9.6875 17.281h-118.91c3.8791 6.4221 7.9842 12.708 12.312 18.812h94.25c-4.322 6.0981-8.88 12.021-13.625 17.781h-67.031c5.356 6.495 10.977 12.78 16.844 18.812h33.375c-5.3568 5.5137-10.895 10.837-16.656 15.938 54.405 48.157 126.11 77.438 204.69 77.438 170.06 0 307.91-137.06 307.91-306.12 0-169.07-137.84-306.12-307.91-306.12zm-251.84 482.28c1.079 1.5219 2.1752 3.03 3.2812 4.5312-1.1062-1.5028-2.2014-3.0068-3.2812-4.5312zm-30.969-54.906c-2.609-6.009-5.0239-12.112-7.25-18.312 2.227 6.2012 4.6394 12.303 7.25 18.312zm-24.938-110.81c-0.0584-1.7332-0.0927-3.4795-0.125-5.2188 0.0293 1.7367 0.0668 3.4892 0.125 5.2188zm-0.125-5.2188c-0.0323-1.7392-0.0625-3.4714-0.0625-5.2188 0 1.7473 0.0332 3.4784 0.0625 5.2188zm1.9062-39.781c-0.36676 3.2454-0.67363 6.506-0.9375 9.7812 0.26762-3.2707 0.56865-6.541 0.9375-9.7812zm-0.9375 9.7812c-0.10122 1.2564-0.19534 2.5207-0.28125 3.7812 0.0877-1.2645 0.17814-2.5211 0.28125-3.7812zm14.219-70.531c0.48036-1.4584 0.96919-2.9246 1.4688-4.375-0.50287 1.4522-0.98733 2.913-1.4688 4.375zm6.25-17.281c-0.46178 1.16-0.89587 2.3331-1.3438 3.5 0.44576-1.1664 0.88262-2.3417 1.3438-3.5zm30.375-57.469c0.96474-1.4325 1.9503-2.865 2.9375-4.2812-0.98997 1.4179-1.9712 2.8461-2.9375 4.2812zm2.9375-4.2812c0.98722-1.4162 1.9899-2.8197 3-4.2188-1.011 1.3972-2.0122 2.804-3 4.2188zm-20.031 32.906c-0.7874 1.5-1.5495 3.0168-2.3125 4.5312 0.76099-1.512 1.5274-3.0336 2.3125-4.5312zm-15.156 33.719c-0.4676 1.2362-0.92309 2.475-1.375 3.7188 0.44844-1.2427 0.9105-2.484 1.375-3.7188zm-19.25 92.781c-0.076 1.5728-0.1667 3.1399-0.21875 4.7188 0.0533-1.5728 0.14131-3.152 0.21875-4.7188zm2 53.094c0.11872 0.94937 0.24756 1.8971 0.375 2.8438-0.12935-0.94794-0.25426-1.8932-0.375-2.8438zm4.8125 27.844c0.33033 1.4941 0.67905 2.9829 1.0312 4.4688-0.35033-1.4812-0.70233-2.9804-1.0312-4.4688zm2.1562 9.0312c0.36989 1.4592 0.73412 2.9242 1.125 4.375-0.39034-1.4516-0.7557-2.9146-1.125-4.375zm77.562 138.09c1.2205 1.2508 2.4459 2.4888 3.6875 3.7188-1.2398-1.2295-2.468-2.468-3.6875-3.7188z" fill="#ffaa18"/>
  </g>
  <path d="m1012.9 501.09c2.4344 0 4.8333 0.62514 7.1458 1.8957 2.3329 1.2299 4.1473 3.0393 5.4484 5.3823 1.3061 2.3277 1.9465 4.752 1.9465 7.2882 0 2.5056-0.6404 4.9248-1.9263 7.2373-1.2756 2.3125-3.0697 4.1269-5.3822 5.4026-2.3074 1.2706-4.7266 1.911-7.2373 1.911-2.531 0-4.9503-0.64038-7.2627-1.911-2.3074-1.2858-4.0965-3.0901-5.3772-5.4026-1.3011-2.3125-1.9364-4.7317-1.9364-7.2373 0-2.5361 0.64547-4.9604 1.9516-7.2882 1.3113-2.343 3.1308-4.1422 5.4534-5.3823 2.343-1.2706 4.7419-1.8957 7.1764-1.8957m0 2.3989c-2.0381 0-4.0303 0.52856-5.9769 1.5908-1.9415 1.0368-3.4509 2.5361-4.5437 4.4979-1.0876 1.9364-1.6365 3.9643-1.6365 6.0684s0.5285 4.1167 1.5908 6.0379c1.0826 1.916 2.5869 3.4204 4.5284 4.503 1.9211 1.0571 3.9287 1.5908 6.0379 1.5908 2.0939 0 4.1167-0.53366 6.0378-1.5908 1.9212-1.0826 3.4256-2.587 4.4929-4.503 1.0724-1.9364 1.5959-3.9338 1.5959-6.0379s-0.5438-4.132-1.6315-6.0684c-1.0825-1.9618-2.592-3.4611-4.5436-4.4979-1.9314-1.0571-3.9084-1.5908-5.9515-1.5908m-6.3784 20.208v-15.669h5.3924c1.8347 0 3.1765 0.14739 3.9896 0.44726 0.8234 0.27953 1.4689 0.78268 1.972 1.5095 0.493 0.72171 0.7421 1.479 0.7421 2.2922 0 1.1435-0.4168 2.1448-1.2401 2.9885-0.8031 0.84367-1.8856 1.3316-3.2376 1.4231 0.5388 0.23379 0.9861 0.51332 1.3317 0.82843 0.6251 0.62006 1.3976 1.6569 2.3124 3.1054l1.9161 3.0698h-3.0952l-1.3773-2.465c-1.0978-1.9466-1.9771-3.1562-2.6479-3.6492-0.4625-0.36085-1.1385-0.53873-2.0279-0.53873h-1.479v6.663l-2.5513-5e-3m2.531-8.818h3.0698c1.4688 0 2.4599-0.21855 2.9884-0.65563 0.5337-0.42693 0.8132-1.0114 0.8132-1.7382 0-0.4625-0.1271-0.87925-0.3812-1.2299-0.2592-0.37609-0.6201-0.64546-1.0825-0.83351-0.4625-0.17789-1.291-0.26937-2.5311-0.26937h-2.8715v4.7266" fill="#ffaa18"/>
  <g transform="translate(0 -125.06)" fill="#fff">
   <path d="m1012.9 501.09c2.4344 0 4.8333 0.62514 7.1458 1.8957 2.3329 1.2299 4.1473 3.0393 5.4484 5.3823 1.3061 2.3277 1.9465 4.752 1.9465 7.2882 0 2.5056-0.6404 4.9248-1.9263 7.2373-1.2756 2.3125-3.0697 4.1269-5.3822 5.4026-2.3074 1.2706-4.7266 1.911-7.2373 1.911-2.531 0-4.9503-0.64038-7.2627-1.911-2.3074-1.2858-4.0965-3.0901-5.3772-5.4026-1.3011-2.3125-1.9364-4.7317-1.9364-7.2373 0-2.5361 0.64547-4.9604 1.9516-7.2882 1.3113-2.343 3.1308-4.1422 5.4534-5.3823 2.343-1.2706 4.7419-1.8957 7.1764-1.8957m0 2.3989c-2.0381 0-4.0303 0.52856-5.9769 1.5908-1.9415 1.0368-3.4509 2.5361-4.5437 4.4979-1.0876 1.9364-1.6365 3.9643-1.6365 6.0684s0.5285 4.1167 1.5908 6.0379c1.0826 1.916 2.5869 3.4204 4.5284 4.503 1.9211 1.0571 3.9287 1.5908 6.0379 1.5908 2.0939 0 4.1167-0.53366 6.0378-1.5908 1.9212-1.0826 3.4256-2.587 4.4929-4.503 1.0724-1.9364 1.5959-3.9338 1.5959-6.0379s-0.5438-4.132-1.6315-6.0684c-1.0825-1.9618-2.592-3.4611-4.5436-4.4979-1.9314-1.0571-3.9084-1.5908-5.9515-1.5908m-6.3784 20.208v-15.669h5.3924c1.8347 0 3.1765 0.14739 3.9896 0.44726 0.8234 0.27953 1.4689 0.78268 1.972 1.5095 0.493 0.72171 0.7421 1.479 0.7421 2.2922 0 1.1435-0.4168 2.1448-1.2401 2.9885-0.8031 0.84367-1.8856 1.3316-3.2376 1.4231 0.5388 0.23379 0.9861 0.51332 1.3317 0.82843 0.6251 0.62006 1.3976 1.6569 2.3124 3.1054l1.9161 3.0698h-3.0952l-1.3773-2.465c-1.0978-1.9466-1.9771-3.1562-2.6479-3.6492-0.4625-0.36085-1.1385-0.53873-2.0279-0.53873h-1.479v6.663l-2.5513-5e-3m2.531-8.818h3.0698c1.4688 0 2.4599-0.21855 2.9884-0.65563 0.5337-0.42693 0.8132-1.0114 0.8132-1.7382 0-0.4625-0.1271-0.87925-0.3812-1.2299-0.2592-0.37609-0.6201-0.64546-1.0825-0.83351-0.4625-0.17789-1.291-0.26937-2.5311-0.26937h-2.8715v4.7266" fill="#fff"/>
  </g>
 </g>
 <g transform="matrix(3.4122 0 0 2.9148 -1.3008 49.653)">
  <g transform="translate(-13.744 15.994)"></g>
  <g fill="#fff">
   <path d="m122.43 113.06 1.181-8.019c-0.645 0-1.594 0.276-2.431 0.276-3.284 0-3.646-1.746-3.437-3.037l2.653-16.362h4.991l1.205-8.87h-4.706l0.958-5.516h-9.434c-0.208 0.208-5.569 31.023-5.569 34.775 0 5.555 3.119 8.029 7.517 7.989 3.444-0.029 6.126-0.982 7.072-1.236z"/>
   <path d="m125.42 97.77c0 13.332 8.8 16.5 16.297 16.5 6.92 0 9.965-1.547 9.965-1.547l1.662-9.099s-5.264 2.319-10.018 2.319c-10.13 0-8.356-7.553-8.356-7.553h19.172s1.238-6.113 1.238-8.604c0-6.216-3.094-13.79-13.452-13.79-9.486 2e-3 -16.508 10.223-16.508 21.774zm16.544-13.325c5.324 0 4.342 5.983 4.342 6.467h-10.474c0-0.618 0.99-6.467 6.132-6.467z"/>
   <path d="m201.71 113.06 1.688-10.285s-4.629 2.321-7.806 2.321c-6.692 0-9.376-5.11-9.376-10.6 0-11.137 5.758-17.264 12.168-17.264 4.807 0 8.665 2.699 8.665 2.699l1.54-9.993s-5.721-2.315-10.625-2.315c-10.891 0-21.486 9.448-21.486 27.192 0 11.766 5.721 19.537 16.979 19.537 3.183 1e-3 8.253-1.292 8.253-1.292z"/>
   <path d="m70.547 76.143c-6.469 0-11.428 2.079-11.428 2.079l-1.369 8.127s4.093-1.663 10.28-1.663c3.513 0 6.083 0.395 6.083 3.25 0 1.734-0.315 2.374-0.315 2.374s-2.771-0.232-4.054-0.232c-8.159 0-16.73 3.482-16.73 13.98 0 8.272 5.623 10.17 9.108 10.17 6.656 0 9.525-4.319 9.678-4.332l-0.311 3.605h8.307l3.706-25.981c0-11.022-9.615-11.377-12.955-11.377zm2.021 21.154c0.18 1.587-0.995 9.026-6.675 9.026-2.93 0-3.692-2.238-3.692-3.562 0-2.582 1.403-5.682 8.316-5.682 1.608 2e-3 1.78 0.174 2.051 0.218z"/>
   <path d="m92.331 114.04c2.125 0 14.273 0.54 14.273-11.995 0-11.719-11.245-9.404-11.245-14.112 0-2.344 1.833-3.082 5.183-3.082 1.33 0 6.447 0.423 6.447 0.423l1.19-8.33c0 1e-3 -3.312-0.741-8.704-0.741-6.979 0-14.063 2.786-14.063 12.318 0 10.801 11.812 9.717 11.812 14.267 0 3.037-3.3 3.284-5.843 3.284-4.401 0-8.364-1.51-8.378-1.438l-1.258 8.246c0.228 0.07 2.672 1.16 10.586 1.16z"/>
   <path d="m279.85 68.668-2.035 12.627s-3.551-4.905-9.11-4.905c-8.644 0-15.849 10.422-15.849 22.397 0 7.73 3.843 15.304 11.699 15.304 5.651 0 8.784-3.94 8.784-3.94l-0.415 3.365h9.176l7.207-44.863-9.457 0.015zm-4.381 24.62c0 4.983-2.467 11.639-7.582 11.639-3.395 0-4.986-2.85-4.986-7.323 0-7.314 3.285-12.14 7.43-12.14 3.396-1e-3 5.138 2.332 5.138 7.824z"/>
   <path d="m19.466 113.56 5.743-33.87 0.843 33.87h6.5l12.125-33.87-5.371 33.87h9.658l7.438-44.923h-14.935l-9.301 27.563-0.484-27.563h-13.767l-7.545 44.923h9.096z"/>
   <path d="m164.82 113.62c2.746-15.616 3.255-28.296 9.808-25.975 1.147-6.044 2.254-8.382 3.506-10.94 0 0-0.587-0.123-1.819-0.123-4.225 0-7.355 5.772-7.355 5.772l0.841-5.301h-8.784l-5.885 36.567h9.688z"/>
  </g>
  <g transform="translate(847.01)">
   <path id="path4149_1_" d="m-623.53 76.143c-6.469 0-11.428 2.079-11.428 2.079l-1.368 8.127s4.093-1.663 10.28-1.663c3.513 0 6.081 0.395 6.081 3.25 0 1.734-0.313 2.374-0.313 2.374s-2.771-0.232-4.055-0.232c-8.158 0-16.729 3.482-16.729 13.98 0 8.272 5.622 10.17 9.107 10.17 6.656 0 9.525-4.319 9.677-4.332l-0.309 3.605h8.307l3.705-25.981c1e-3 -11.022-9.615-11.377-12.955-11.377zm2.024 21.154c0.18 1.587-0.996 9.026-6.678 9.026-2.93 0-3.69-2.238-3.69-3.562 0-2.582 1.403-5.682 8.315-5.682 1.608 2e-3 1.779 0.174 2.053 0.218z" fill="#fff"/>
  </g>
  <g transform="translate(442.29)">
   <path id="path4131_1_" d="m-198.26 113.62c2.747-15.616 3.256-28.296 9.807-25.975 1.149-6.044 2.257-8.382 3.508-10.94 0 0-0.587-0.123-1.819-0.123-4.225 0-7.355 5.772-7.355 5.772l0.841-5.301h-8.784l-5.885 36.567h9.687z" fill="#fff"/>
  </g>
 </g>
</svg>
