<svg xmlns="http://www.w3.org/2000/svg" width="1025.219" height="612.25"><path d="M329.438 20.125C159.375 20.125 21.53 157.18 21.53 326.25s137.844 306.125 307.906 306.125c78.576 0 150.283-29.28 204.688-77.438a305.142 305.142 0 0 0 12.625-11.843 310.78 310.78 0 0 0 4.063-4.094h-33.375a308.028 308.028 0 0 1-16.844-18.813h67.031a309.104 309.104 0 0 0 13.625-17.78H487a306.34 306.34 0 0 1-14.844-23.063 304.02 304.02 0 0 1-16.125-31.844 302.194 302.194 0 0 1-3.781-9.094 303.959 303.959 0 0 1-3.469-9.219 302.565 302.565 0 0 1-6.094-18.812h182.907a302.983 302.983 0 0 0 4.625-18.281H438.062a303.443 303.443 0 0 1-4.78-27.688c-.121-.963-.233-1.94-.344-2.906.114.974.22 1.935.343 2.906.377 2.967.793 5.93 1.25 8.875H633.75A303.808 303.808 0 0 0 636 355.47H432.281a307.774 307.774 0 0 1-1.312-24c-.03-1.738-.063-3.474-.063-5.219 0 1.747.03 3.48.063 5.219.032 1.739.066 3.485.125 5.219h206.094c.052-1.547.093-3.106.125-4.657.003-.187-.003-.375 0-.562 0-.063-.001-.125 0-.188.03-1.677.062-3.346.062-5.031a307.734 307.734 0 0 0-2.563-39.406H433.47a309.474 309.474 0 0 0-1.906 19.531c-.108 1.643-.2 3.288-.282 4.938-.067 1.37-.138 2.75-.187 4.125.048-1.378.12-2.752.187-4.125.08-1.651.175-3.294.281-4.938a303.966 303.966 0 0 1 9.063-56.625 302.049 302.049 0 0 1 5.531-18.813 341.913 341.913 0 0 0 0 0h175.969c-1.922-5.833-3.991-11.608-6.25-17.28H452.406a302.638 302.638 0 0 1 10.719-23.845 311.418 311.418 0 0 0-2.469 5.032h146.969a313.206 313.206 0 0 0-3.375-6.813c-.545-1.069-1.067-2.125-1.625-3.187-.143-.273-.294-.54-.438-.813-.165-.312-.333-.625-.5-.937a298.304 298.304 0 0 0-2.5-4.625c-.645-1.162-1.308-2.317-1.968-3.469H471.062a306.042 306.042 0 0 1 14.657-23.094c.984-1.41 1.992-2.826 3-4.219a305.73 305.73 0 0 1 6.187-8.28c5.02-6.467 10.3-12.74 15.813-18.782h46.812a313.14 313.14 0 0 0-5.625-6 307.702 307.702 0 0 0-17.781-17.063C479.72 49.406 408.013 20.126 329.437 20.126zm165.468 119.281a297.138 297.138 0 0 0-6.187 8.281 312.105 312.105 0 0 0-5.938 8.5H585.47a307.377 307.377 0 0 0-12.125-16.78h-78.438zM440.625 249.75a304.406 304.406 0 0 0-4.125 18.281h195.281a304.417 304.417 0 0 0-4.125-18.281H440.625zm8.156 179.438c1.113 3.1 2.26 6.166 3.469 9.218a301.544 301.544 0 0 0 3.781 9.094H612.25a303.004 303.004 0 0 0 7.25-18.313H448.781zm23.375 50.156c.83 1.426 1.68 2.838 2.531 4.25h118.907a305.253 305.253 0 0 0 9.687-17.281H465a302.878 302.878 0 0 0 7.156 13.03zm89.875-353.688zm26.282 34.781c.594.915 1.196 1.829 1.78 2.75-.586-.924-1.185-1.832-1.78-2.75zm4.25 6.75zm16.937 31.625zm-8.969 272.72c-.359.66-.73 1.31-1.093 1.968.363-.656.735-1.31 1.093-1.969zm-10.625 18.03c-.53.834-1.056 1.673-1.593 2.5.537-.828 1.063-1.666 1.593-2.5zm-25.656 34.72zm-4.844 5.53zm-6.031 6.563c-.681.717-1.375 1.415-2.063 2.125.688-.71 1.383-1.409 2.063-2.125z" style="fill:#ff0018;fill-opacity:1;fill-rule:evenodd;stroke:none" transform="translate(-21.531 -20.125)"/><path d="M738.844 20.125c-78.576 0-150.282 29.28-204.688 77.438 8.205 7.263 15.993 14.975 23.375 23.062H510.72a308.285 308.285 0 0 0-15.781 18.781h78.406a307.377 307.377 0 0 1 12.125 16.781H482.78A306.017 306.017 0 0 0 471.062 175H597.22a304.224 304.224 0 0 1 10.406 19.844H460.656a303.686 303.686 0 0 0-8.25 18.812h163.469c2.259 5.673 4.328 11.448 6.25 17.281H446.156a302.572 302.572 0 0 0-9.656 37.094 304.406 304.406 0 0 1 4.125-18.281h187.031a304.417 304.417 0 0 1 4.125 18.281H436.5a303.466 303.466 0 0 0-3.625 23.656c.184-1.62.385-3.231.594-4.843h201.344a306.247 306.247 0 0 1 2.562 39.406c0 3.495-.07 6.97-.188 10.438H431.095c.213 6.318.626 12.565 1.219 18.78H636a303.808 303.808 0 0 1-2.25 17.813H434.531a302.554 302.554 0 0 0 3.531 18.813H630.22a302.983 302.983 0 0 1-4.625 18.281H442.687a302.042 302.042 0 0 0 6.094 18.813H619.5a303.004 303.004 0 0 1-7.25 18.312H456.031a304.423 304.423 0 0 0 18.656 36.094A305.56 305.56 0 0 1 465 466.313h138.281a305.253 305.253 0 0 1-9.687 17.28H474.687A306.662 306.662 0 0 0 487 502.407h94.25a309.104 309.104 0 0 1-13.625 17.781h-67.031A308.76 308.76 0 0 0 517.438 539h33.375a306.476 306.476 0 0 1-16.657 15.938c54.406 48.157 126.112 77.437 204.688 77.437 170.062 0 307.906-137.055 307.906-306.125S908.906 20.125 738.844 20.125zM487 502.406zM456.031 447.5zm-24.937-110.813zm-.125-5.218c-.033-1.74-.063-3.472-.063-5.219 0 1.747.033 3.478.063 5.219zm1.906-39.781zm-.938 9.78zm14.22-70.53zm6.25-17.282c-.463 1.16-.897 2.333-1.344 3.5.445-1.166.882-2.341 1.343-3.5zm30.374-57.469zm2.938-4.28zm-20.031 32.905c-.788 1.5-1.55 3.017-2.313 4.532a308.368 308.368 0 0 1 2.313-4.531zm-15.157 33.72zm-19.25 92.78c-.076 1.573-.166 3.14-.219 4.72.054-1.574.142-3.153.22-4.72zm2 53.094c.119.95.248 1.897.375 2.844-.13-.948-.254-1.893-.375-2.844zm4.813 27.844zm2.156 9.031c.37 1.46.734 2.924 1.125 4.375-.39-1.451-.756-2.914-1.125-4.375zm77.563 138.094z" style="fill:#ffaa18;fill-opacity:1;fill-rule:evenodd;stroke:none" transform="translate(-21.531 -20.125)"/><path d="M1012.874 501.094c2.435 0 4.834.625 7.146 1.896 2.333 1.23 4.147 3.039 5.448 5.382 1.307 2.328 1.947 4.752 1.947 7.288 0 2.506-.64 4.925-1.926 7.237-1.276 2.313-3.07 4.127-5.383 5.403-2.307 1.27-4.726 1.91-7.237 1.91-2.53 0-4.95-.64-7.263-1.91-2.307-1.286-4.096-3.09-5.377-5.403-1.3-2.312-1.936-4.731-1.936-7.237 0-2.536.645-4.96 1.951-7.288 1.312-2.343 3.131-4.142 5.454-5.382 2.343-1.271 4.742-1.896 7.176-1.896m0 2.399c-2.038 0-4.03.528-5.977 1.59-1.941 1.037-3.45 2.537-4.543 4.499-1.088 1.936-1.637 3.964-1.637 6.068 0 2.104.529 4.117 1.591 6.038a11.585 11.585 0 0 0 4.528 4.503c1.921 1.057 3.93 1.59 6.038 1.59 2.094 0 4.117-.533 6.038-1.59a11.528 11.528 0 0 0 4.493-4.503c1.072-1.937 1.596-3.934 1.596-6.038s-.544-4.132-1.632-6.068c-1.082-1.962-2.592-3.462-4.543-4.498-1.932-1.058-3.909-1.591-5.952-1.591m-6.378 20.207v-15.669h5.392c1.835 0 3.177.148 3.99.448.823.28 1.469.782 1.972 1.51.493.72.742 1.478.742 2.291 0 1.144-.417 2.145-1.24 2.989-.803.843-1.886 1.331-3.238 1.423.54.234.986.513 1.332.828.625.62 1.398 1.657 2.312 3.106l1.916 3.07h-3.095l-1.377-2.466c-1.098-1.946-1.977-3.156-2.648-3.649-.462-.36-1.138-.539-2.028-.539h-1.479v6.663l-2.551-.005m2.53-8.817h3.07c1.47 0 2.46-.219 2.99-.656.533-.427.812-1.012.812-1.738 0-.463-.127-.88-.38-1.23-.26-.376-.621-.646-1.083-.834-.463-.178-1.291-.27-2.532-.27h-2.871v4.728" style="fill:#ffaa18;fill-opacity:1" transform="translate(-21.531 -20.125)"/><g style="fill:#fff"><path d="M1012.874 501.094c2.435 0 4.834.625 7.146 1.896 2.333 1.23 4.147 3.039 5.448 5.382 1.307 2.328 1.947 4.752 1.947 7.288 0 2.506-.64 4.925-1.926 7.237-1.276 2.313-3.07 4.127-5.383 5.403-2.307 1.27-4.726 1.91-7.237 1.91-2.53 0-4.95-.64-7.263-1.91-2.307-1.286-4.096-3.09-5.377-5.403-1.3-2.312-1.936-4.731-1.936-7.237 0-2.536.645-4.96 1.951-7.288 1.312-2.343 3.131-4.142 5.454-5.382 2.343-1.271 4.742-1.896 7.176-1.896m0 2.399c-2.038 0-4.03.528-5.977 1.59-1.941 1.037-3.45 2.537-4.543 4.499-1.088 1.936-1.637 3.964-1.637 6.068 0 2.104.529 4.117 1.591 6.038a11.585 11.585 0 0 0 4.528 4.503c1.921 1.057 3.93 1.59 6.038 1.59 2.094 0 4.117-.533 6.038-1.59a11.528 11.528 0 0 0 4.493-4.503c1.072-1.937 1.596-3.934 1.596-6.038s-.544-4.132-1.632-6.068c-1.082-1.962-2.592-3.462-4.543-4.498-1.932-1.058-3.909-1.591-5.952-1.591m-6.378 20.207v-15.669h5.392c1.835 0 3.177.148 3.99.448.823.28 1.469.782 1.972 1.51.493.72.742 1.478.742 2.291 0 1.144-.417 2.145-1.24 2.989-.803.843-1.886 1.331-3.238 1.423.54.234.986.513 1.332.828.625.62 1.398 1.657 2.312 3.106l1.916 3.07h-3.095l-1.377-2.466c-1.098-1.946-1.977-3.156-2.648-3.649-.462-.36-1.138-.539-2.028-.539h-1.479v6.663l-2.551-.005m2.53-8.817h3.07c1.47 0 2.46-.219 2.99-.656.533-.427.812-1.012.812-1.738 0-.463-.127-.88-.38-1.23-.26-.376-.621-.646-1.083-.834-.463-.178-1.291-.27-2.532-.27h-2.871v4.728" style="fill:#fff;fill-opacity:1" transform="translate(-21.531 -145.186)"/></g><path d="m122.434 113.059 1.181-8.019c-.645 0-1.594.276-2.431.276-3.284 0-3.646-1.746-3.437-3.037l2.653-16.362h4.991l1.205-8.87h-4.706l.958-5.516h-9.434c-.208.208-5.569 31.023-5.569 34.775 0 5.555 3.119 8.029 7.517 7.989 3.444-.029 6.126-.982 7.072-1.236zM125.423 97.77c0 13.332 8.8 16.5 16.297 16.5 6.92 0 9.965-1.547 9.965-1.547l1.662-9.099s-5.264 2.319-10.018 2.319c-10.13 0-8.356-7.553-8.356-7.553h19.172s1.238-6.113 1.238-8.604c0-6.216-3.094-13.79-13.452-13.79-9.486.002-16.508 10.223-16.508 21.774zm16.544-13.325c5.324 0 4.342 5.983 4.342 6.467h-10.474c0-.618.99-6.467 6.132-6.467zM201.707 113.055l1.688-10.285s-4.629 2.321-7.806 2.321c-6.692 0-9.376-5.11-9.376-10.6 0-11.137 5.758-17.264 12.168-17.264 4.807 0 8.665 2.699 8.665 2.699l1.54-9.993s-5.721-2.315-10.625-2.315c-10.891 0-21.486 9.448-21.486 27.192 0 11.766 5.721 19.537 16.979 19.537 3.183.001 8.253-1.292 8.253-1.292zM70.547 76.143c-6.469 0-11.428 2.079-11.428 2.079l-1.369 8.127s4.093-1.663 10.28-1.663c3.513 0 6.083.395 6.083 3.25 0 1.734-.315 2.374-.315 2.374s-2.771-.232-4.054-.232c-8.159 0-16.73 3.482-16.73 13.98 0 8.272 5.623 10.17 9.108 10.17 6.656 0 9.525-4.319 9.678-4.332l-.311 3.605h8.307l3.706-25.981c0-11.022-9.615-11.377-12.955-11.377zm2.021 21.154c.18 1.587-.995 9.026-6.675 9.026-2.93 0-3.692-2.238-3.692-3.562 0-2.582 1.403-5.682 8.316-5.682 1.608.002 1.78.174 2.051.218zM92.331 114.038c2.125 0 14.273.54 14.273-11.995 0-11.719-11.245-9.404-11.245-14.112 0-2.344 1.833-3.082 5.183-3.082 1.33 0 6.447.423 6.447.423l1.19-8.33c0 .001-3.312-.741-8.704-.741-6.979 0-14.063 2.786-14.063 12.318 0 10.801 11.812 9.717 11.812 14.267 0 3.037-3.3 3.284-5.843 3.284-4.401 0-8.364-1.51-8.378-1.438l-1.258 8.246c.228.07 2.672 1.16 10.586 1.16zM279.852 68.668l-2.035 12.627s-3.551-4.905-9.11-4.905c-8.644 0-15.849 10.422-15.849 22.397 0 7.73 3.843 15.304 11.699 15.304 5.651 0 8.784-3.94 8.784-3.94l-.415 3.365h9.176l7.207-44.863-9.457.015zm-4.381 24.62c0 4.983-2.467 11.639-7.582 11.639-3.395 0-4.986-2.85-4.986-7.323 0-7.314 3.285-12.14 7.43-12.14 3.396-.001 5.138 2.332 5.138 7.824zM19.466 113.555l5.743-33.87.843 33.87h6.5l12.125-33.87-5.371 33.87h9.658l7.438-44.923H41.467l-9.301 27.563-.484-27.563H17.915l-7.545 44.923h9.096zM164.818 113.617c2.746-15.616 3.255-28.296 9.808-25.975 1.147-6.044 2.254-8.382 3.506-10.94 0 0-.587-.123-1.819-.123-4.225 0-7.355 5.772-7.355 5.772l.841-5.301h-8.784l-5.885 36.567h9.688z" style="fill:#fff" transform="matrix(3.41221 0 0 2.91475 -1.3 49.653)"/><path d="M-623.531 76.143c-6.469 0-11.428 2.079-11.428 2.079l-1.368 8.127s4.093-1.663 10.28-1.663c3.513 0 6.081.395 6.081 3.25 0 1.734-.313 2.374-.313 2.374s-2.771-.232-4.055-.232c-8.158 0-16.729 3.482-16.729 13.98 0 8.272 5.622 10.17 9.107 10.17 6.656 0 9.525-4.319 9.677-4.332l-.309 3.605h8.307l3.705-25.981c.001-11.022-9.615-11.377-12.955-11.377zm2.024 21.154c.18 1.587-.996 9.026-6.678 9.026-2.93 0-3.69-2.238-3.69-3.562 0-2.582 1.403-5.682 8.315-5.682 1.608.002 1.779.174 2.053.218z" style="fill:#fff" transform="matrix(3.41221 0 0 2.91475 2888.865 49.653)"/><path d="M-198.263 113.617c2.747-15.616 3.256-28.296 9.807-25.975 1.149-6.044 2.257-8.382 3.508-10.94 0 0-.587-.123-1.819-.123-4.225 0-7.355 5.772-7.355 5.772l.841-5.301h-8.784l-5.885 36.567h9.687z" style="fill:#fff" transform="matrix(3.41221 0 0 2.91475 1507.872 49.653)"/></svg>