<?xml version="1.0" encoding="UTF-8"?><svg id="a" xmlns="http://www.w3.org/2000/svg" viewBox="0 0 1025.22 612.25"><g id="b"><g id="c"><g id="d"><path id="e" d="m307.91,0C137.84,0,0,137.06,0,306.12s137.84,306.12,307.91,306.12c78.58,0,150.28-29.28,204.69-77.44,4.33-3.83,8.53-7.78,12.62-11.84,1.37-1.35,2.72-2.71,4.06-4.09h-33.38c1.34,1.38,2.7,2.74,4.06,4.09-1.36-1.35-2.72-2.72-4.06-4.09-5.87-6.04-11.48-12.31-16.84-18.81-1.18-1.43-2.37-2.89-3.53-4.34,1.16,1.46,2.35,2.9,3.53,4.34h67.03c4.74-5.76,9.3-11.68,13.62-17.78h-94.25c2.16,3.05,4.36,6.07,6.62,9.03-2.27-2.97-4.46-5.98-6.62-9.03-5.28-7.45-10.24-15.15-14.84-23.06-5.97-10.26-11.36-20.88-16.12-31.84-1.31-3.01-2.57-6.03-3.78-9.09-1.21-3.04-2.36-6.13-3.47-9.22-2.22-6.18-4.27-12.45-6.09-18.81h182.91c1.73-6.02,3.27-12.12,4.62-18.28h-192.16c1.02,4.62,2.15,9.21,3.38,13.75-1.23-4.54-2.36-9.12-3.38-13.75-2-9.09-3.61-18.32-4.78-27.69-.12-.96-.23-1.94-.34-2.91.11.97.22,1.93.34,2.91.38,2.97.79,5.93,1.25,8.88h199.22c.91-5.89,1.68-11.82,2.25-17.81h-203.72c-.59-6.2-.97-12.48-1.19-18.78-.06-1.74-.1-3.48-.12-5.22-.03-1.74-.06-3.47-.06-5.22,0,1.75.03,3.48.06,5.22s.07,3.49.12,5.22h206.09c.05-1.55.09-3.11.12-4.66,0-.19,0-.38,0-.56,0-.06,0-.13,0-.19.03-1.68.06-3.35.06-5.03,0-2.85-.05-5.67-.12-8.5-.29-10.44-1.12-20.76-2.44-30.91h-201.34c-.84,6.45-1.47,12.96-1.91,19.53-.11,1.64-.2,3.29-.28,4.94-.07,1.37-.14,2.75-.19,4.12.05-1.38.12-2.75.19-4.12.08-1.65.18-3.29.28-4.94,1.25-19.42,4.33-38.36,9.06-56.62,1.65-6.36,3.49-12.62,5.53-18.81.48-1.46.97-2.92,1.47-4.38.5-1.44,1.01-2.88,1.53-4.31-.52,1.44-1.03,2.86-1.53,4.31s-.99,2.92-1.47,4.38h175.97c-1.92-5.83-3.99-11.61-6.25-17.28h-163.47c-.56,1.42-1.11,2.85-1.66,4.28.54-1.43,1.09-2.86,1.66-4.28,2.54-6.39,5.3-12.64,8.25-18.81.81-1.68,1.63-3.37,2.47-5.03.84-1.68,1.69-3.34,2.56-5-.87,1.65-1.72,3.33-2.56,5s-1.66,3.34-2.47,5.03h146.97c-1.1-2.29-2.23-4.55-3.38-6.81-.55-1.07-1.07-2.13-1.62-3.19-.14-.27-.29-.54-.44-.81-.17-.31-.33-.62-.5-.94-.82-1.55-1.65-3.09-2.5-4.62-.65-1.16-1.31-2.32-1.97-3.47h-126.16c3.68-6.42,7.6-12.69,11.72-18.81.97-1.44,1.95-2.86,2.94-4.28.98-1.41,1.99-2.83,3-4.22,2.03-2.8,4.07-5.55,6.19-8.28,5.02-6.47,10.3-12.74,15.81-18.78h46.81c-1.85-2.02-3.73-4.03-5.62-6-5.7-5.92-11.62-11.61-17.78-17.06C458.19,29.28,386.48,0,307.91,0Zm165.47,119.28c-2.11,2.72-4.17,5.48-6.19,8.28-1.01,1.4-2.01,2.8-3,4.22s-1.97,2.85-2.94,4.28h102.69c-3.86-5.73-7.89-11.33-12.12-16.78h-78.44Zm-54.28,110.34c-1.56,6.02-2.93,12.12-4.12,18.28h195.28c-1.2-6.16-2.57-12.26-4.12-18.28h-187.03Zm8.16,179.44c1.11,3.1,2.26,6.17,3.47,9.22s2.48,6.09,3.78,9.09h156.22c2.61-6.01,5.02-12.11,7.25-18.31h-170.72Zm23.38,50.16c.83,1.43,1.68,2.84,2.53,4.25h118.91c3.41-5.65,6.64-11.4,9.69-17.28h-138.28c2.28,4.41,4.67,8.75,7.16,13.03Zm89.88-353.69c.74.85,1.49,1.7,2.22,2.56-.73-.86-1.48-1.71-2.22-2.56Zm26.28,34.78c.59.91,1.2,1.83,1.78,2.75-.59-.92-1.19-1.83-1.78-2.75Zm4.25,6.75c.55.89,1.09,1.79,1.62,2.69-.54-.9-1.08-1.8-1.62-2.69Zm16.94,31.62c.56,1.21,1.11,2.44,1.66,3.66-.54-1.22-1.1-2.44-1.66-3.66Zm-8.97,272.72c-.36.66-.73,1.31-1.09,1.97.36-.66.74-1.31,1.09-1.97Zm-10.62,18.03c-.53.83-1.06,1.67-1.59,2.5.54-.83,1.06-1.67,1.59-2.5Zm-25.66,34.72c-.73.86-1.48,1.71-2.22,2.56.74-.85,1.49-1.7,2.22-2.56Zm-4.84,5.53c-.88.98-1.76,1.97-2.66,2.94.89-.97,1.78-1.95,2.66-2.94Zm-6.03,6.56c-.68.72-1.37,1.41-2.06,2.12.69-.71,1.38-1.41,2.06-2.12Z" style="fill:#ff0018; fill-rule:evenodd;"/><path id="f" d="m717.31,0c-78.58,0-150.28,29.28-204.69,77.44,8.2,7.26,15.99,14.98,23.38,23.06h-46.81c-5.51,6.04-10.76,12.32-15.78,18.78h78.41c4.23,5.45,8.26,11.05,12.12,16.78h-102.69c-4.12,6.12-8.04,12.39-11.72,18.81h126.16c3.71,6.47,7.17,13.09,10.41,19.84h-146.97c-2.95,6.16-5.71,12.44-8.25,18.81h163.47c2.26,5.67,4.33,11.45,6.25,17.28h-175.97c-3.97,12.05-7.2,24.44-9.66,37.09,1.2-6.16,2.57-12.26,4.12-18.28h187.03c1.56,6.02,2.93,12.12,4.12,18.28h-195.28c-1.51,7.79-2.72,15.67-3.62,23.66.18-1.62.38-3.23.59-4.84h201.34c1.67,12.9,2.56,26.05,2.56,39.41,0,3.49-.07,6.97-.19,10.44h-206.09c.21,6.32.63,12.57,1.22,18.78h203.69c-.57,6-1.34,11.92-2.25,17.81h-199.22c.98,6.34,2.16,12.6,3.53,18.81h192.16c-1.36,6.16-2.9,12.27-4.62,18.28h-182.91c1.83,6.36,3.87,12.62,6.09,18.81h170.72c-2.23,6.2-4.64,12.3-7.25,18.31h-156.22c5.42,12.49,11.67,24.53,18.66,36.09-3.41-5.65-6.64-11.4-9.69-17.28h138.28c-3.05,5.88-6.28,11.63-9.69,17.28h-118.91c3.88,6.42,7.98,12.71,12.31,18.81h94.25c-4.32,6.1-8.88,12.02-13.62,17.78h-67.03c5.36,6.49,10.98,12.78,16.84,18.81h33.38c-5.36,5.51-10.89,10.84-16.66,15.94,54.41,48.16,126.11,77.44,204.69,77.44,170.06,0,307.91-137.06,307.91-306.12S887.37,0,717.31,0Zm-251.84,482.28c1.08,1.52,2.18,3.03,3.28,4.53-1.11-1.5-2.2-3.01-3.28-4.53Zm-30.97-54.91c-2.61-6.01-5.02-12.11-7.25-18.31,2.23,6.2,4.64,12.3,7.25,18.31Zm-24.94-110.81c-.06-1.73-.09-3.48-.12-5.22.03,1.74.07,3.49.12,5.22Zm-.12-5.22c-.03-1.74-.06-3.47-.06-5.22,0,1.75.03,3.48.06,5.22Zm1.91-39.78c-.37,3.25-.67,6.51-.94,9.78.27-3.27.57-6.54.94-9.78Zm-.94,9.78c-.1,1.26-.2,2.52-.28,3.78.09-1.26.18-2.52.28-3.78Zm14.22-70.53c.48-1.46.97-2.92,1.47-4.38-.5,1.45-.99,2.91-1.47,4.38Zm6.25-17.28c-.46,1.16-.9,2.33-1.34,3.5.45-1.17.88-2.34,1.34-3.5Zm30.38-57.47c.96-1.43,1.95-2.87,2.94-4.28-.99,1.42-1.97,2.85-2.94,4.28Zm2.94-4.28c.99-1.42,1.99-2.82,3-4.22-1.01,1.4-2.01,2.8-3,4.22Zm-20.03,32.91c-.79,1.5-1.55,3.02-2.31,4.53.76-1.51,1.53-3.03,2.31-4.53Zm-15.16,33.72c-.47,1.24-.92,2.47-1.38,3.72.45-1.24.91-2.48,1.38-3.72Zm-19.25,92.78c-.08,1.57-.17,3.14-.22,4.72.05-1.57.14-3.15.22-4.72Zm2,53.09c.12.95.25,1.9.38,2.84-.13-.95-.25-1.89-.38-2.84Zm4.81,27.84c.33,1.49.68,2.98,1.03,4.47-.35-1.48-.7-2.98-1.03-4.47Zm2.16,9.03c.37,1.46.73,2.92,1.12,4.38-.39-1.45-.76-2.91-1.12-4.38Zm77.56,138.09c1.22,1.25,2.45,2.49,3.69,3.72-1.24-1.23-2.47-2.47-3.69-3.72Z" style="fill:#ffaa18; fill-rule:evenodd;"/></g><g id="g"><path id="h" d="m991.34,480.97c2.43,0,4.83.63,7.15,1.9,2.33,1.23,4.15,3.04,5.45,5.38,1.31,2.33,1.95,4.75,1.95,7.29s-.64,4.92-1.93,7.24c-1.28,2.31-3.07,4.13-5.38,5.4-2.31,1.27-4.73,1.91-7.24,1.91s-4.95-.64-7.26-1.91c-2.31-1.29-4.1-3.09-5.38-5.4-1.3-2.31-1.94-4.73-1.94-7.24s.65-4.96,1.95-7.29c1.31-2.34,3.13-4.14,5.45-5.38,2.34-1.27,4.74-1.9,7.18-1.9m0,2.4c-2.04,0-4.03.53-5.98,1.59-1.94,1.04-3.45,2.54-4.54,4.5-1.09,1.94-1.64,3.96-1.64,6.07s.53,4.12,1.59,6.04c1.08,1.92,2.59,3.42,4.53,4.5,1.92,1.06,3.93,1.59,6.04,1.59s4.12-.53,6.04-1.59c1.92-1.08,3.43-2.59,4.49-4.5,1.07-1.94,1.6-3.93,1.6-6.04s-.54-4.13-1.63-6.07c-1.08-1.96-2.59-3.46-4.54-4.5-1.93-1.06-3.91-1.59-5.95-1.59m-6.38,20.21v-15.67h5.39c1.83,0,3.18.15,3.99.45.82.28,1.47.78,1.97,1.51.49.72.74,1.48.74,2.29,0,1.14-.42,2.14-1.24,2.99-.8.84-1.89,1.33-3.24,1.42.54.23.99.51,1.33.83.63.62,1.4,1.66,2.31,3.11l1.92,3.07h-3.1l-1.38-2.46c-1.1-1.95-1.98-3.16-2.65-3.65-.46-.36-1.14-.54-2.03-.54h-1.48v6.66h-2.55m2.53-8.82h3.07c1.47,0,2.46-.22,2.99-.66.53-.43.81-1.01.81-1.74,0-.46-.13-.88-.38-1.23-.26-.38-.62-.65-1.08-.83-.46-.18-1.29-.27-2.53-.27h-2.87v4.73" style="fill:#ffaa18;"/></g></g><g id="i"><g id="j"><path id="k" d="m991.34,355.91c2.43,0,4.83.63,7.15,1.9,2.33,1.23,4.15,3.04,5.45,5.38,1.31,2.33,1.95,4.75,1.95,7.29s-.64,4.92-1.93,7.24c-1.28,2.31-3.07,4.13-5.38,5.4-2.31,1.27-4.73,1.91-7.24,1.91s-4.95-.64-7.26-1.91c-2.31-1.29-4.1-3.09-5.38-5.4-1.3-2.31-1.94-4.73-1.94-7.24s.65-4.96,1.95-7.29c1.31-2.34,3.13-4.14,5.45-5.38,2.34-1.27,4.74-1.9,7.18-1.9m0,2.4c-2.04,0-4.03.53-5.98,1.59-1.94,1.04-3.45,2.54-4.54,4.5-1.09,1.94-1.64,3.96-1.64,6.07s.53,4.12,1.59,6.04c1.08,1.92,2.59,3.42,4.53,4.5,1.92,1.06,3.93,1.59,6.04,1.59s4.12-.53,6.04-1.59c1.92-1.08,3.43-2.59,4.49-4.5,1.07-1.94,1.6-3.93,1.6-6.04s-.54-4.13-1.63-6.07c-1.08-1.96-2.59-3.46-4.54-4.5-1.93-1.06-3.91-1.59-5.95-1.59m-6.38,20.21v-15.67h5.39c1.83,0,3.18.15,3.99.45.82.28,1.47.78,1.97,1.51.49.72.74,1.48.74,2.29,0,1.14-.42,2.14-1.24,2.99-.8.84-1.89,1.33-3.24,1.42.54.23.99.51,1.33.83.63.62,1.4,1.66,2.31,3.11l1.92,3.07h-3.1l-1.38-2.46c-1.1-1.95-1.98-3.16-2.65-3.65-.46-.36-1.14-.54-2.03-.54h-1.48v6.66h-2.55m2.53-8.82h3.07c1.47,0,2.46-.22,2.99-.66.53-.43.81-1.01.81-1.74,0-.46-.13-.88-.38-1.23-.26-.38-.62-.65-1.08-.83-.46-.18-1.29-.27-2.53-.27h-2.87v4.73" style="fill:#fff;"/></g></g></g><g id="l"><g id="m"><g id="n"><path id="o" d="m416.47,379.19l4.03-23.37c-2.2,0-5.44.8-8.3.8-11.21,0-12.44-5.09-11.73-8.85l9.05-47.69h17.03l4.11-25.85h-16.06l3.27-16.08h-32.19c-.71.61-19,90.42-19,101.36,0,16.19,10.64,23.4,25.65,23.29,11.75-.08,20.9-2.86,24.13-3.6Z" style="fill:#fff;"/><path id="p" d="m426.67,334.63c0,38.86,30.03,48.09,55.61,48.09,23.61,0,34-4.51,34-4.51l5.67-26.52s-17.96,6.76-34.18,6.76c-34.57,0-28.51-22.02-28.51-22.02h65.42s4.22-17.82,4.22-25.08c0-18.12-10.56-40.19-45.9-40.19-32.37,0-56.33,29.8-56.33,63.47h0Zm56.45-38.84c18.17,0,14.82,17.44,14.82,18.85h-35.74c0-1.8,3.38-18.85,20.92-18.85Z" style="fill:#fff;"/><path id="q" d="m686.97,379.18l5.76-29.98s-15.8,6.77-26.64,6.77c-22.83,0-31.99-14.89-31.99-30.9,0-32.46,19.65-50.32,41.52-50.32,16.4,0,29.57,7.87,29.57,7.87l5.25-29.13s-19.52-6.75-36.25-6.75c-37.16,0-73.31,27.54-73.31,79.26,0,34.29,19.52,56.95,57.94,56.95,10.86,0,28.16-3.77,28.16-3.77h0Z" style="fill:#fff;"/><path id="r" d="m239.42,271.59c-22.07,0-38.99,6.06-38.99,6.06l-4.67,23.69s13.97-4.85,35.08-4.85c11.99,0,20.76,1.15,20.76,9.47,0,5.05-1.07,6.92-1.07,6.92,0,0-9.46-.68-13.83-.68-27.84,0-57.09,10.15-57.09,40.75,0,24.11,19.19,29.64,31.08,29.64,22.71,0,32.5-12.59,33.02-12.63l-1.06,10.51h28.35l12.65-75.73c0-32.13-32.81-33.16-44.21-33.16Zm6.9,61.66c.61,4.63-3.4,26.31-22.78,26.31-10,0-12.6-6.52-12.6-10.38,0-7.53,4.79-16.56,28.38-16.56,5.49,0,6.07.51,7,.64h0Z" style="fill:#fff;"/><path id="s" d="m313.75,382.05c7.25,0,48.7,1.57,48.7-34.96,0-34.16-38.37-27.41-38.37-41.13,0-6.83,6.25-8.98,17.69-8.98,4.54,0,22,1.23,22,1.23l4.06-24.28s-11.3-2.16-29.7-2.16c-23.81,0-47.99,8.12-47.99,35.9,0,31.48,40.31,28.32,40.31,41.58,0,8.85-11.26,9.57-19.94,9.57-15.02,0-28.54-4.4-28.59-4.19l-4.29,24.04c.78.2,9.12,3.38,36.12,3.38h0Z" style="fill:#fff;"/><path id="t" d="m953.61,249.8l-6.94,36.8s-12.12-14.3-31.09-14.3c-29.5,0-54.08,30.38-54.08,65.28,0,22.53,13.11,44.61,39.92,44.61,19.28,0,29.97-11.48,29.97-11.48l-1.42,9.81h31.31l24.59-130.76-32.27.04Zm-14.95,71.76c0,14.52-8.42,33.92-25.87,33.92-11.58,0-17.01-8.31-17.01-21.34,0-21.32,11.21-35.39,25.35-35.39,11.59,0,17.53,6.8,17.53,22.81Z" style="fill:#fff;"/><path id="u" d="m65.12,380.64l19.6-98.72,2.88,98.72h22.18l41.37-98.72-18.33,98.72h32.96l25.38-130.94h-50.96l-31.74,80.34-1.65-80.34h-46.98l-25.75,130.94h31.04,0Z" style="fill:#fff;"/><path id="v" d="m561.09,380.82c9.37-45.52,11.11-82.48,33.47-75.71,3.91-17.62,7.69-24.43,11.96-31.89,0,0-2-.36-6.21-.36-14.42,0-25.1,16.82-25.1,16.82l2.87-15.45h-29.97l-20.08,106.58h33.06,0Z" style="fill:#fff;"/><g id="w"><path id="x" d="m761.24,271.59c-22.07,0-38.99,6.06-38.99,6.06l-4.67,23.69s13.97-4.85,35.08-4.85c11.99,0,20.75,1.15,20.75,9.47,0,5.05-1.07,6.92-1.07,6.92,0,0-9.46-.68-13.84-.68-27.84,0-57.08,10.15-57.08,40.75,0,24.11,19.18,29.64,31.08,29.64,22.71,0,32.5-12.59,33.02-12.63l-1.05,10.51h28.35l12.64-75.73c0-32.13-32.81-33.16-44.21-33.16h0Zm6.91,61.66c.61,4.63-3.4,26.31-22.79,26.31-10,0-12.59-6.52-12.59-10.38,0-7.53,4.79-16.56,28.37-16.56,5.49,0,6.07.51,7.01.64h0Z" style="fill:#fff;"/></g><g id="y"><path id="z" d="m831.36,380.82c9.37-45.52,11.11-82.48,33.46-75.71,3.92-17.62,7.7-24.43,11.97-31.89,0,0-2-.36-6.21-.36-14.42,0-25.1,16.82-25.1,16.82l2.87-15.45h-29.97l-20.08,106.58h33.05,0Z" style="fill:#fff;"/></g></g></g></g></svg>