<svg id="Capa_1" data-name="Capa 1" xmlns="http://www.w3.org/2000/svg" viewBox="0 0 799.99 767.4"><defs><style>.cls-1{fill:#ed8a19;}</style></defs><path class="cls-1" d="M779.66,357a67.15,67.15,0,0,0-37.22-114.55L548,214.23a1.08,1.08,0,0,1-.82-.59l-87-176.2a67.16,67.16,0,0,0-120.45,0l-87,176.2a1.06,1.06,0,0,1-.82.59L57.55,242.49A67.16,67.16,0,0,0,20.33,357L161,494.19a1.09,1.09,0,0,1,.31,1L128.13,688.82a67.17,67.17,0,0,0,97.45,70.8l173.91-91.44a1.14,1.14,0,0,1,1,0l173.91,91.44a67.17,67.17,0,0,0,97.45-70.81L638.65,495.16a1.11,1.11,0,0,1,.31-1Z"/></svg>