<?xml version="1.0" encoding="utf-8"?>
<!-- Generator: Adobe Illustrator 26.3.1, SVG Export Plug-In . SVG Version: 6.00 Build 0)  -->
<svg version="1.1" id="Capa_1" xmlns="http://www.w3.org/2000/svg" xmlns:xlink="http://www.w3.org/1999/xlink" x="0px" y="0px"
	 viewBox="0 0 800 767.4" style="enable-background:new 0 0 800 767.4;" xml:space="preserve">
<style type="text/css">
	.st0{fill:#FFFFFF;}
</style>
<path class="st0" d="M779.7,357c26.6-25.9,27.1-68.4,1.2-95c-10.3-10.6-23.8-17.5-38.5-19.6L548,214.2c-0.4,0-0.7-0.3-0.8-0.6
	l-87-176.2C443.8,4.2,403.5-9.5,370.2,6.9c-13.2,6.5-24,17.3-30.5,30.5l-87,176.2c-0.2,0.3-0.5,0.5-0.8,0.6L57.5,242.5
	c-36.7,5.4-62.1,39.5-56.8,76.2c2.1,14.6,9,28.1,19.5,38.4L161,494.2c0.3,0.3,0.4,0.6,0.3,1l-33.2,193.6
	c-6.3,36.6,18.3,71.3,54.9,77.5c14.5,2.5,29.5,0.1,42.6-6.7l173.9-91.4c0.3-0.2,0.7-0.2,1,0l173.9,91.4
	c32.8,17.3,73.4,4.6,90.7-28.2c6.9-13.1,9.2-28,6.7-42.6l-33.2-193.6c-0.1-0.4,0-0.7,0.3-1L779.7,357z"/>
</svg>
