<?xml version="1.0" encoding="utf-8"?>
<!-- Generator: Adobe Illustrator 26.3.1, SVG Export Plug-In . SVG Version: 6.00 Build 0)  -->
<svg version="1.1" id="Capa_1" xmlns="http://www.w3.org/2000/svg" xmlns:xlink="http://www.w3.org/1999/xlink" x="0px" y="0px"
	 viewBox="0 0 800 767.4" style="enable-background:new 0 0 800 767.4;" xml:space="preserve">
<style type="text/css">
	.st0{fill:#ED8A19;}
</style>
<g>
	<path class="st0" d="M779.7,357c18.4-18,25-44.4,17-68.8s-28.7-42-54.2-45.7L548,214.2c-0.4-0.1-0.7-0.3-0.8-0.6l-87-176.2
		C448.8,14.3,425.8,0,400,0s-48.8,14.3-60.2,37.4l-87,176.2c-0.2,0.3-0.5,0.5-0.8,0.6L57.6,242.5c-25.5,3.7-46.3,21.2-54.2,45.7
		c-8,24.5-1.4,50.9,17,68.8L161,494.2c0.3,0.2,0.4,0.6,0.3,1l-33.2,193.7c-4.4,25.4,5.9,50.6,26.7,65.7
		c20.8,15.1,47.9,17.1,70.7,5.1l173.9-91.4c0.3-0.2,0.7-0.2,1,0l173.9,91.4c9.9,5.2,20.6,7.8,31.3,7.8c13.9,0,27.6-4.3,39.4-12.9
		c20.8-15.1,31.1-40.3,26.7-65.7l-33.2-193.7c-0.1-0.4,0.1-0.7,0.3-1L779.7,357z M573.5,506.3L606.7,700c0.1,0.5,0.1,0.7-0.4,1.1
		c-0.5,0.4-0.7,0.3-1.1,0.1l-173.9-91.4c-19.6-10.3-42.9-10.3-62.5,0l-173.9,91.4c-0.5,0.2-0.6,0.3-1.1-0.1
		c-0.5-0.4-0.5-0.6-0.4-1.1l33.2-193.7c3.7-21.8-3.5-44-19.3-59.4L66.5,309.7c-0.4-0.4-0.5-0.5-0.3-1.1c0.2-0.6,0.4-0.7,0.9-0.7
		l194.4-28.3c21.9-3.2,40.8-16.9,50.6-36.7l87-176.2c0.2-0.5,0.3-0.6,1-0.6s0.7,0.1,1,0.6l87,176.2c9.8,19.8,28.7,33.6,50.6,36.7
		l194.4,28.3c0.5,0.1,0.7,0.1,0.9,0.7s0.1,0.8-0.3,1.1L592.8,446.9C577,462.3,569.8,484.5,573.5,506.3z"/>
</g>
</svg>
