<?xml version="1.0" encoding="UTF-8"?><svg id="a" xmlns="http://www.w3.org/2000/svg" viewBox="0 0 999 323.68"><path id="b" d="m650.69,0C579.75,0,516.36,36.77,516.36,104.69c0,77.9,112.42,83.28,112.42,122.42,0,16.48-18.88,31.23-51.14,31.23-45.77,0-79.98-20.61-79.98-20.61l-14.64,68.55s39.41,17.41,91.73,17.41c77.55,0,138.58-38.57,138.58-107.66,0-82.32-112.89-87.54-112.89-123.86,0-12.91,15.5-27.05,47.66-27.05,36.29,0,65.89,14.99,65.89,14.99l14.33-66.2S696.11,0,650.69,0h0ZM1.72,5L0,14.99s29.84,5.46,56.72,16.36c34.61,12.49,37.07,19.77,42.9,42.35l63.51,244.83h85.14L379.43,5h-84.94l-84.28,213.17-34.39-180.7c-3.15-20.68-19.13-32.48-38.68-32.48,0,0-135.41,0-135.41,0Zm411.87,0l-66.63,313.53h81L494.35,5h-80.76Zm451.76,0c-19.53,0-29.88,10.46-37.47,28.73l-118.67,284.8h84.94l16.43-47.47h103.48l9.99,47.47h74.95L933.62,5h-68.27Zm11.05,84.71l25.18,117.65h-67.45l42.28-117.65h0Z" style="fill:#1434cb;"/></svg>