<?xml version="1.0" standalone="no"?>
<!DOCTYPE svg PUBLIC "-//W3C//DTD SVG 20010904//EN"
 "http://www.w3.org/TR/2001/REC-SVG-20010904/DTD/svg10.dtd">
<svg version="1.0" xmlns="http://www.w3.org/2000/svg"
 width="942.000000pt" height="332.000000pt" viewBox="0 0 942.000000 332.000000"
 preserveAspectRatio="xMidYMid meet">

<g transform="translate(0.000000,332.000000) scale(0.100000,-0.100000)"
fill="#000000" stroke="none">
<path d="M5900 3104 c-340 -44 -584 -145 -770 -320 -124 -118 -200 -243 -239
-395 -51 -201 -31 -382 61 -538 46 -78 198 -228 298 -294 47 -30 162 -96 257
-145 195 -102 219 -117 286 -181 63 -60 80 -94 80 -161 0 -122 -88 -208 -264
-256 -49 -14 -100 -18 -214 -18 -226 1 -384 35 -599 130 -55 24 -101 43 -102
41 -1 -1 -30 -132 -63 -292 -34 -159 -64 -297 -67 -306 -10 -35 271 -114 516
-144 145 -18 426 -20 555 -4 112 14 285 57 391 98 238 92 430 264 529 472 57
122 77 215 78 364 2 188 -31 291 -137 432 -88 116 -214 208 -504 364 -307 167
-367 220 -367 329 0 93 62 161 190 210 77 29 281 39 418 20 107 -14 270 -58
353 -95 31 -14 58 -24 59 -23 2 4 125 583 125 591 0 11 -185 66 -312 92 -103
22 -156 27 -323 30 -110 2 -216 1 -235 -1z"/>
<path d="M218 3035 c-1 -14 -2 -32 -2 -41 -1 -12 31 -24 134 -50 323 -83 591
-194 666 -276 23 -24 47 -62 55 -84 7 -21 146 -554 309 -1184 l296 -1145 388
0 387 0 584 1395 c322 767 585 1398 585 1402 0 5 -171 7 -381 6 l-381 -3 -199
-505 c-430 -1087 -551 -1391 -554 -1388 -2 2 -73 375 -159 831 -103 545 -163
843 -177 872 -32 67 -93 131 -157 162 l-57 28 -667 3 -668 3 -2 -26z"/>
<path d="M3935 3048 c-6 -19 -595 -2776 -595 -2788 0 -6 128 -10 363 -10 l362
0 298 1398 c164 768 298 1400 297 1405 0 4 -162 7 -360 7 -280 0 -362 -3 -365
-12z"/>
<path d="M7893 3041 c-69 -23 -123 -62 -160 -114 -22 -30 -1036 -2425 -1124
-2654 l-9 -23 383 0 382 0 75 208 75 207 466 3 466 2 21 -97 c11 -54 31 -149
43 -210 l24 -113 338 0 337 0 -5 23 c-3 12 -135 643 -294 1402 l-288 1380
-339 2 c-304 2 -344 1 -391 -16z m322 -1260 c58 -276 105 -508 105 -516 0 -13
-43 -15 -296 -15 -233 0 -295 3 -292 13 73 206 373 1025 375 1023 2 -1 50
-229 108 -505z"/>
</g>
</svg>
