<?xml version="1.0" encoding="UTF-8"?>
<svg width="64px" height="61px" viewBox="0 0 64 61" version="1.1" xmlns="http://www.w3.org/2000/svg" xmlns:xlink="http://www.w3.org/1999/xlink">
    <!-- Generator: Sketch 55 (78076) - https://sketchapp.com -->
    <title>emptyStar</title>
    <desc>Created with Sketch.</desc>
    <g id="Page-1" stroke="none" stroke-width="1" fill="none" fill-rule="evenodd">
        <g id="emptyStar" transform="translate(2.000000, 2.000000)" fill-rule="nonzero" stroke="#000000" stroke-width="3">
            <path d="M59.7973099,21.7845614 C59.5909942,21.1493567 59.0421053,20.6864327 58.3812865,20.5905263 L39.817193,17.8928655 L31.5148538,1.07099415 C31.2194152,0.472163743 30.6094737,0.0930994152 29.9417544,0.0930994152 C29.2739181,0.0930994152 28.6640936,0.472163743 28.368538,1.07099415 L20.065848,17.8928655 L1.50210526,20.5905263 C0.841403509,20.6864327 0.292280702,21.1493567 0.0859649123,21.7844444 C-0.120467836,22.4196491 0.0516959064,23.1168421 0.52994152,23.582924 L13.9624561,36.6769591 L10.7919298,55.1661988 C10.6789474,55.8244444 10.9495906,56.4894737 11.4898246,56.8821053 C11.7954386,57.1040936 12.1574269,57.217076 12.5211696,57.217076 C12.8004678,57.217076 13.0807018,57.1505263 13.3373099,57.0155556 L29.9416374,48.2859649 L46.5452632,57.0154386 C47.1364912,57.3261988 47.8526316,57.2745029 48.3928655,56.8819883 C48.9330994,56.4894737 49.2038596,55.8242105 49.0909942,55.1659649 L45.9194152,36.6769591 L59.3534503,23.582807 C59.8315789,23.1168421 60.0038596,22.4196491 59.7973099,21.7845614 Z" id="Path"></path>
        </g>
    </g>
</svg>