<?xml version="1.0" encoding="UTF-8" standalone="no"?>
<!-- Created with Inkscape (http://www.inkscape.org/) -->

<svg
   xmlns:dc="http://purl.org/dc/elements/1.1/"
   xmlns:cc="http://creativecommons.org/ns#"
   xmlns:rdf="http://www.w3.org/1999/02/22-rdf-syntax-ns#"
   xmlns:svg="http://www.w3.org/2000/svg"
   xmlns="http://www.w3.org/2000/svg"
   xmlns:sodipodi="http://sodipodi.sourceforge.net/DTD/sodipodi-0.dtd"
   xmlns:inkscape="http://www.inkscape.org/namespaces/inkscape"
   id="svg2985"
   version="1.1"
   inkscape:version="0.91 r13725"
   width="1025.2188"
   height="612.25"
   sodipodi:docname="MasterCard_early_1990s_logo.svg">
  <metadata
     id="metadata2991">
    <rdf:RDF>
      <cc:Work
         rdf:about="">
        <dc:format>image/svg+xml</dc:format>
        <dc:type
           rdf:resource="http://purl.org/dc/dcmitype/StillImage" />
        <dc:title />
      </cc:Work>
    </rdf:RDF>
  </metadata>
  <defs
     id="defs2989" />
  <sodipodi:namedview
     pagecolor="#ffffff"
     bordercolor="#666666"
     borderopacity="1"
     objecttolerance="10"
     gridtolerance="10"
     guidetolerance="10"
     inkscape:pageopacity="0"
     inkscape:pageshadow="2"
     inkscape:window-width="1366"
     inkscape:window-height="705"
     id="namedview2987"
     showgrid="false"
     inkscape:object-paths="false"
     inkscape:zoom="0.49176063"
     inkscape:cx="169.58914"
     inkscape:cy="328.16526"
     inkscape:window-x="-8"
     inkscape:window-y="-8"
     inkscape:window-maximized="1"
     inkscape:current-layer="svg2985"
     fit-margin-top="0"
     fit-margin-left="0"
     fit-margin-right="0"
     fit-margin-bottom="0" />
  <g
     id="g3478"
     transform="translate(-21.53125,-20.125)">
    <g
       id="g3456">
      <g
         id="g3159">
        <path
           id="path3086"
           d="m 329.4375,20.125 c -170.06241,0 -307.90625,137.05525 -307.90625,306.125 0,169.06974 137.84384,306.125 307.90625,306.125 78.57568,0 150.28213,-29.28031 204.6875,-77.4375 4.32564,-3.82886 8.52935,-7.78171 12.625,-11.84375 1.36522,-1.35401 2.72195,-2.71395 4.0625,-4.09375 l -33.375,0 c 1.34076,1.3798 2.69717,2.73974 4.0625,4.09375 -1.36398,-1.35109 -2.72406,-2.71759 -4.0625,-4.09375 -5.87403,-6.03958 -11.48167,-12.30986 -16.84375,-18.8125 -1.18322,-1.4349 -2.37393,-2.88727 -3.53125,-4.34375 1.15938,1.46059 2.34503,2.90381 3.53125,4.34375 l 67.03125,0 c 4.74495,-5.76005 9.30299,-11.68315 13.625,-17.78125 l -94.25,0 c 2.15965,3.04891 4.35958,6.06813 6.625,9.03125 -2.27069,-2.96664 -4.46221,-5.98112 -6.625,-9.03125 -5.28024,-7.44659 -10.23564,-15.14711 -14.84375,-23.0625 -5.9722,-10.25849 -11.36114,-20.87676 -16.125,-31.84375 -1.30825,-3.01174 -2.56844,-6.03286 -3.78125,-9.09375 -1.20542,-3.04225 -2.35943,-6.12977 -3.46875,-9.21875 -2.22004,-6.18188 -4.26957,-12.45432 -6.09375,-18.8125 l 182.90625,0 c 1.72574,-6.01557 3.26615,-12.12043 4.625,-18.28125 l -192.15625,0 c 1.01871,4.62067 2.14998,9.2064 3.375,13.75 -1.2275,-4.5445 -2.35528,-9.12455 -3.375,-13.75 -2.0031,-9.08605 -3.60987,-18.31887 -4.78125,-27.6875 -0.12048,-0.96359 -0.2323,-1.93991 -0.34375,-2.90625 0.11401,0.97448 0.22035,1.93477 0.34375,2.90625 0.37691,2.96716 0.79307,5.92957 1.25,8.875 l 199.21875,0 c 0.91431,-5.89109 1.67885,-11.81532 2.25,-17.8125 l -203.71875,0 c -0.59049,-6.20296 -0.97495,-12.476 -1.1875,-18.78125 -0.0585,-1.73552 -0.0957,-3.47602 -0.125,-5.21875 -0.0292,-1.73804 -0.0625,-3.47377 -0.0625,-5.21875 0,1.74734 0.0302,3.47951 0.0625,5.21875 0.0323,1.73924 0.0666,3.48557 0.125,5.21875 l 206.09375,0 c 0.0522,-1.5466 0.0934,-3.1051 0.125,-4.65625 0.003,-0.1876 -0.003,-0.37553 0,-0.5625 9.8e-4,-0.0625 -10e-4,-0.12507 0,-0.1875 0.0301,-1.67694 0.0625,-3.34653 0.0625,-5.03125 0,-2.84501 -0.0453,-5.6735 -0.125,-8.5 -0.2945,-10.4401 -1.12101,-20.75739 -2.4375,-30.90625 l -201.34375,0 c -0.83646,6.44836 -1.47474,12.96081 -1.90625,19.53125 -0.10788,1.64261 -0.19972,3.2879 -0.28125,4.9375 -0.0677,1.36957 -0.13823,2.75078 -0.1875,4.125 0.0481,-1.37798 0.12111,-2.75171 0.1875,-4.125 0.0798,-1.65088 0.17524,-3.29358 0.28125,-4.9375 1.25255,-19.42282 4.33446,-38.35552 9.0625,-56.625 1.64508,-6.35671 3.49283,-12.62267 5.53125,-18.8125 0.48159,-1.4624 0.96569,-2.9224 1.46875,-4.375 0.49849,-1.4394 1.01186,-2.8829 1.53125,-4.3125 -0.52,1.44099 -1.03169,2.86213 -1.53125,4.3125 -0.49956,1.45037 -0.98839,2.91658 -1.46875,4.375 l 175.96875,0 c -1.92151,-5.83346 -3.99137,-11.60843 -6.25,-17.28125 l -163.46875,0 c -0.56462,1.41826 -1.11456,2.85097 -1.65625,4.28125 0.54413,-1.42981 1.09129,-2.86176 1.65625,-4.28125 2.54253,-6.38827 5.29594,-12.6434 8.25,-18.8125 0.80501,-1.68114 1.63398,-3.36718 2.46875,-5.03125 0.8425,-1.67949 1.69003,-3.33825 2.5625,-5 -0.86706,1.65406 -1.72482,3.3285 -2.5625,5 -0.83768,1.6715 -1.66027,3.34294 -2.46875,5.03125 l 146.96875,0 c -1.09631,-2.28876 -2.22538,-4.55471 -3.375,-6.8125 -0.54536,-1.06922 -1.06742,-2.12554 -1.625,-3.1875 -0.14296,-0.27287 -0.29373,-0.54012 -0.4375,-0.8125 -0.16521,-0.31236 -0.33354,-0.62493 -0.5,-0.9375 -0.82452,-1.54891 -1.64911,-3.09226 -2.5,-4.625 -0.64509,-1.16202 -1.30834,-2.31631 -1.96875,-3.46875 l -126.15625,0 c 3.67747,-6.42046 7.59826,-12.69312 11.71875,-18.8125 0.9684,-1.43819 1.94537,-2.86043 2.9375,-4.28125 0.98471,-1.41019 1.99219,-2.82594 3,-4.21875 2.02629,-2.80037 4.0695,-5.55281 6.1875,-8.28125 5.01947,-6.46614 10.29913,-12.74011 15.8125,-18.78125 l 46.8125,0 c -1.84692,-2.02322 -3.72587,-4.02637 -5.625,-6 C 546.20887,108.7041 540.28345,103.01368 534.125,97.5625 479.71963,49.405308 408.01318,20.125 329.4375,20.125 z m 165.46875,119.28125 c -2.11451,2.72393 -4.16724,5.48316 -6.1875,8.28125 -1.01013,1.39905 -2.01278,2.80253 -3,4.21875 -0.98722,1.41622 -1.97276,2.84878 -2.9375,4.28125 l 102.6875,0 c -3.86023,-5.72965 -7.89489,-11.33358 -12.125,-16.78125 l -78.4375,0 z M 440.625,249.75 c -1.55914,6.02222 -2.92959,12.1233 -4.125,18.28125 l 195.28125,0 c -1.19541,-6.15773 -2.56587,-12.25923 -4.125,-18.28125 l -187.03125,0 z m 8.15625,179.4375 c 1.11307,3.10038 2.26065,6.16685 3.46875,9.21875 1.2081,3.0519 2.47672,6.08922 3.78125,9.09375 l 156.21875,0 c 2.61031,-6.00906 5.02286,-12.11169 7.25,-18.3125 l -170.71875,0 z m 23.375,50.15625 c 0.83004,1.42575 1.67918,2.83797 2.53125,4.25 l 118.90625,0 c 3.41024,-5.6481 6.64054,-11.40447 9.6875,-17.28125 l -138.28125,0 c 2.28413,4.40759 4.66614,8.754 7.15625,13.03125 z m 89.875,-353.6875 c 0.74276,0.8503 1.4853,1.70402 2.21875,2.5625 -0.73256,-0.85763 -1.47689,-1.71304 -2.21875,-2.5625 z m 26.28125,34.78125 c 0.59434,0.915 1.1965,1.82833 1.78125,2.75 -0.58628,-0.92429 -1.18533,-1.83242 -1.78125,-2.75 z m 4.25,6.75 c 0.5468,0.89172 1.08715,1.78982 1.625,2.6875 -0.53744,-0.89742 -1.07862,-1.79604 -1.625,-2.6875 z m 16.9375,31.625 c 0.5592,1.21231 1.11258,2.43548 1.65625,3.65625 -0.5439,-1.22166 -1.0968,-2.44305 -1.65625,-3.65625 z m -8.96875,272.71875 c -0.3588,0.66011 -0.73022,1.31157 -1.09375,1.96875 0.36307,-0.6565 0.73539,-1.30933 1.09375,-1.96875 z m -10.625,18.03125 c -0.52995,0.83341 -1.05596,1.67205 -1.59375,2.5 0.53796,-0.82834 1.06364,-1.6662 1.59375,-2.5 z M 564.25,524.28125 c -0.73345,0.85848 -1.47599,1.7122 -2.21875,2.5625 0.74186,-0.84946 1.48619,-1.70487 2.21875,-2.5625 z m -4.84375,5.53125 c -0.88167,0.98353 -1.76207,1.96541 -2.65625,2.9375 0.89337,-0.97144 1.77537,-1.95463 2.65625,-2.9375 z m -6.03125,6.5625 c -0.68096,0.71684 -1.37468,1.41472 -2.0625,2.125 0.68716,-0.70978 1.3822,-1.40867 2.0625,-2.125 z"
           style="fill:#ff0018;fill-opacity:1;fill-rule:evenodd;stroke:none"
           inkscape:connector-curvature="0" />
        <path
           id="path3155"
           d="m 738.84375,20.125 c -78.57567,0 -150.28213,29.280308 -204.6875,77.4375 8.2049,7.26372 15.99255,14.97533 23.375,23.0625 l -46.8125,0 c -5.51049,6.0388 -10.76414,12.31777 -15.78125,18.78125 l 78.40625,0 c 4.23011,5.44767 8.26477,11.0516 12.125,16.78125 l -102.6875,0 c -4.12083,6.11999 -8.04096,12.39138 -11.71875,18.8125 l 126.15625,0 c 3.7071,6.46898 7.1716,13.0908 10.40625,19.84375 l -146.96875,0 c -2.94884,6.159 -5.71127,12.43509 -8.25,18.8125 l 163.46875,0 c 2.25863,5.67282 4.32849,11.44779 6.25,17.28125 l -175.96875,0 c -3.96809,12.05052 -7.20431,24.43627 -9.65625,37.09375 1.19541,-6.15795 2.56586,-12.25903 4.125,-18.28125 l 187.03125,0 c 1.55913,6.02202 2.92959,12.12352 4.125,18.28125 l -195.28125,0 c -1.50917,7.7907 -2.72218,15.6674 -3.625,23.65625 0.18443,-1.6201 0.38464,-3.23166 0.59375,-4.84375 l 201.34375,0 c 1.67291,12.89651 2.5625,26.05279 2.5625,39.40625 0,3.49499 -0.0706,6.97086 -0.1875,10.4375 l -206.09375,0 c 0.2128,6.31839 0.62641,12.56552 1.21875,18.78125 l 203.6875,0 c -0.57115,5.99718 -1.33569,11.92141 -2.25,17.8125 l -199.21875,0 c 0.98386,6.34407 2.1619,12.60328 3.53125,18.8125 l 192.15625,0 c -1.35885,6.16082 -2.89926,12.26568 -4.625,18.28125 l -182.90625,0 c 1.82551,6.36407 3.87168,12.62499 6.09375,18.8125 l 170.71875,0 c -2.22714,6.20081 -4.63969,12.30344 -7.25,18.3125 l -156.21875,0 c 5.42456,12.48664 11.67352,24.53356 18.65625,36.09375 -3.40829,-5.64812 -6.642,-11.40446 -9.6875,-17.28125 l 138.28125,0 c -3.04696,5.87678 -6.27726,11.63315 -9.6875,17.28125 l -118.90625,0 c 3.87914,6.42207 7.98425,12.70794 12.3125,18.8125 l 94.25,0 c -4.32201,6.0981 -8.88005,12.0212 -13.625,17.78125 l -67.03125,0 c 5.35601,6.49499 10.97709,12.77957 16.84375,18.8125 l 33.375,0 c -5.35681,5.51367 -10.89494,10.83705 -16.65625,15.9375 54.40537,48.15719 126.11183,77.4375 204.6875,77.4375 C 908.90618,632.375 1046.75,495.31974 1046.75,326.25 1046.75,157.18025 908.90618,20.125 738.84375,20.125 z M 487,502.40625 c 1.07903,1.52187 2.17518,3.02999 3.28125,4.53125 -1.10619,-1.50285 -2.20142,-3.0068 -3.28125,-4.53125 z M 456.03125,447.5 c -2.60905,-6.00905 -5.02387,-12.11173 -7.25,-18.3125 2.22698,6.20118 4.63944,12.30331 7.25,18.3125 z m -24.9375,-110.8125 c -0.0584,-1.73318 -0.0927,-3.47951 -0.125,-5.21875 0.0293,1.73671 0.0668,3.4892 0.125,5.21875 z m -0.125,-5.21875 c -0.0323,-1.73924 -0.0625,-3.47141 -0.0625,-5.21875 0,1.74733 0.0332,3.47837 0.0625,5.21875 z M 432.875,291.6875 c -0.36676,3.2454 -0.67363,6.50596 -0.9375,9.78125 0.26762,-3.27073 0.56865,-6.54104 0.9375,-9.78125 z m -0.9375,9.78125 c -0.10122,1.25636 -0.19534,2.52066 -0.28125,3.78125 0.0877,-1.2645 0.17814,-2.52107 0.28125,-3.78125 z m 14.21875,-70.53125 c 0.48036,-1.45842 0.96919,-2.92463 1.46875,-4.375 -0.50287,1.45221 -0.98733,2.913 -1.46875,4.375 z m 6.25,-17.28125 c -0.46178,1.16001 -0.89587,2.33309 -1.34375,3.5 0.44576,-1.16641 0.88262,-2.34169 1.34375,-3.5 z m 30.375,-57.46875 c 0.96474,-1.43247 1.95028,-2.86503 2.9375,-4.28125 -0.98997,1.41787 -1.97115,2.84609 -2.9375,4.28125 z m 2.9375,-4.28125 c 0.98722,-1.41622 1.98987,-2.8197 3,-4.21875 -1.01102,1.39723 -2.01222,2.80403 -3,4.21875 z M 465.6875,184.8125 c -0.7874,1.49997 -1.54949,3.01682 -2.3125,4.53125 0.76099,-1.512 1.52741,-3.03357 2.3125,-4.53125 z m -15.15625,33.71875 c -0.4676,1.23624 -0.92309,2.47496 -1.375,3.71875 0.44844,-1.24266 0.9105,-2.48398 1.375,-3.71875 z m -19.25,92.78125 c -0.076,1.57275 -0.1667,3.13986 -0.21875,4.71875 0.0533,-1.57284 0.14131,-3.15199 0.21875,-4.71875 z m 2,53.09375 c 0.11872,0.94937 0.24756,1.89709 0.375,2.84375 -0.12935,-0.94794 -0.25426,-1.89325 -0.375,-2.84375 z m 4.8125,27.84375 c 0.33033,1.49412 0.67905,2.9829 1.03125,4.46875 -0.35033,-1.48124 -0.70233,-2.98045 -1.03125,-4.46875 z m 2.15625,9.03125 c 0.36989,1.45916 0.73412,2.92425 1.125,4.375 -0.39034,-1.45159 -0.7557,-2.91463 -1.125,-4.375 z M 517.8125,539.375 c 1.22047,1.25075 2.44588,2.48879 3.6875,3.71875 -1.23978,-1.22951 -2.46799,-2.46798 -3.6875,-3.71875 z"
           style="fill:#ffaa18;fill-opacity:1;fill-rule:evenodd;stroke:none"
           inkscape:connector-curvature="0" />
      </g>
      <g
         id="g3442">
        <path
           inkscape:connector-curvature="0"
           d="m 1012.8743,501.09391 c 2.4344,0 4.8333,0.62514 7.1458,1.89573 2.3329,1.22994 4.1473,3.03928 5.4484,5.38226 1.3061,2.32773 1.9465,4.75204 1.9465,7.28815 0,2.50562 -0.6404,4.92484 -1.9263,7.23732 -1.2756,2.3125 -3.0697,4.12691 -5.3822,5.40259 -2.3074,1.27059 -4.7266,1.91097 -7.2373,1.91097 -2.531,0 -4.9503,-0.64038 -7.2627,-1.91097 -2.3074,-1.28585 -4.0965,-3.09009 -5.3772,-5.40259 -1.30113,-2.31248 -1.93642,-4.7317 -1.93642,-7.23732 0,-2.53611 0.64547,-4.96042 1.95162,-7.28815 1.3113,-2.34298 3.1308,-4.14215 5.4534,-5.38226 2.343,-1.27059 4.7419,-1.89573 7.1764,-1.89573 m 0,2.39889 c -2.0381,0 -4.0303,0.52856 -5.9769,1.59079 -1.9415,1.03681 -3.4509,2.53612 -4.5437,4.49792 -1.0876,1.93638 -1.6365,3.96426 -1.6365,6.06837 0,2.10411 0.5285,4.11674 1.5908,6.03789 1.0826,1.91605 2.5869,3.42044 4.5284,4.503 1.9211,1.05713 3.9287,1.59079 6.0379,1.59079 2.0939,0 4.1167,-0.53366 6.0378,-1.59079 1.9212,-1.08256 3.4256,-2.58695 4.4929,-4.503 1.0724,-1.9364 1.5959,-3.93378 1.5959,-6.03789 0,-2.10411 -0.5438,-4.13199 -1.6315,-6.06837 -1.0825,-1.9618 -2.592,-3.46111 -4.5436,-4.49792 -1.9314,-1.05714 -3.9084,-1.59079 -5.9515,-1.59079 m -6.3784,20.20759 v -15.66902 h 5.3924 c 1.8347,0 3.1765,0.14739 3.9896,0.44726 0.8234,0.27953 1.4689,0.78268 1.972,1.50946 0.493,0.72171 0.7421,1.47898 0.7421,2.29216 0,1.14354 -0.4168,2.14477 -1.2401,2.98846 -0.8031,0.84367 -1.8856,1.33158 -3.2376,1.42306 0.5388,0.23379 0.9861,0.51332 1.3317,0.82843 0.6251,0.62006 1.3976,1.65686 2.3124,3.10535 l 1.9161,3.06976 h -3.0952 l -1.3773,-2.46496 c -1.0978,-1.94656 -1.9771,-3.15617 -2.6479,-3.64916 -0.4625,-0.36085 -1.1385,-0.53873 -2.0279,-0.53873 h -1.479 v 6.66302 l -2.5513,-0.005 m 2.531,-8.81795 h 3.0698 c 1.4688,0 2.4599,-0.21855 2.9884,-0.65563 0.5337,-0.42693 0.8132,-1.0114 0.8132,-1.73818 0,-0.4625 -0.1271,-0.87925 -0.3812,-1.22994 -0.2592,-0.37609 -0.6201,-0.64546 -1.0825,-0.83351 -0.4625,-0.17789 -1.291,-0.26937 -2.5311,-0.26937 h -2.8715 v 4.72663"
           style="fill:#ffaa18;fill-opacity:1"
           id="text9407" />
      </g>
    </g>
    <g
       id="g3463">
      <g
         id="g3340" />
      <g
         id="g3445"
         transform="translate(0,-125.06085)"
         style="fill:white">
        <path
           id="path3447"
           style="fill:white;fill-opacity:1"
           d="m 1012.8743,501.09391 c 2.4344,0 4.8333,0.62514 7.1458,1.89573 2.3329,1.22994 4.1473,3.03928 5.4484,5.38226 1.3061,2.32773 1.9465,4.75204 1.9465,7.28815 0,2.50562 -0.6404,4.92484 -1.9263,7.23732 -1.2756,2.3125 -3.0697,4.12691 -5.3822,5.40259 -2.3074,1.27059 -4.7266,1.91097 -7.2373,1.91097 -2.531,0 -4.9503,-0.64038 -7.2627,-1.91097 -2.3074,-1.28585 -4.0965,-3.09009 -5.3772,-5.40259 -1.30113,-2.31248 -1.93642,-4.7317 -1.93642,-7.23732 0,-2.53611 0.64547,-4.96042 1.95162,-7.28815 1.3113,-2.34298 3.1308,-4.14215 5.4534,-5.38226 2.343,-1.27059 4.7419,-1.89573 7.1764,-1.89573 m 0,2.39889 c -2.0381,0 -4.0303,0.52856 -5.9769,1.59079 -1.9415,1.03681 -3.4509,2.53612 -4.5437,4.49792 -1.0876,1.93638 -1.6365,3.96426 -1.6365,6.06837 0,2.10411 0.5285,4.11674 1.5908,6.03789 1.0826,1.91605 2.5869,3.42044 4.5284,4.503 1.9211,1.05713 3.9287,1.59079 6.0379,1.59079 2.0939,0 4.1167,-0.53366 6.0378,-1.59079 1.9212,-1.08256 3.4256,-2.58695 4.4929,-4.503 1.0724,-1.9364 1.5959,-3.93378 1.5959,-6.03789 0,-2.10411 -0.5438,-4.13199 -1.6315,-6.06837 -1.0825,-1.9618 -2.592,-3.46111 -4.5436,-4.49792 -1.9314,-1.05714 -3.9084,-1.59079 -5.9515,-1.59079 m -6.3784,20.20759 v -15.66902 h 5.3924 c 1.8347,0 3.1765,0.14739 3.9896,0.44726 0.8234,0.27953 1.4689,0.78268 1.972,1.50946 0.493,0.72171 0.7421,1.47898 0.7421,2.29216 0,1.14354 -0.4168,2.14477 -1.2401,2.98846 -0.8031,0.84367 -1.8856,1.33158 -3.2376,1.42306 0.5388,0.23379 0.9861,0.51332 1.3317,0.82843 0.6251,0.62006 1.3976,1.65686 2.3124,3.10535 l 1.9161,3.06976 h -3.0952 l -1.3773,-2.46496 c -1.0978,-1.94656 -1.9771,-3.15617 -2.6479,-3.64916 -0.4625,-0.36085 -1.1385,-0.53873 -2.0279,-0.53873 h -1.479 v 6.66302 l -2.5513,-0.005 m 2.531,-8.81795 h 3.0698 c 1.4688,0 2.4599,-0.21855 2.9884,-0.65563 0.5337,-0.42693 0.8132,-1.0114 0.8132,-1.73818 0,-0.4625 -0.1271,-0.87925 -0.3812,-1.22994 -0.2592,-0.37609 -0.6201,-0.64546 -1.0825,-0.83351 -0.4625,-0.17789 -1.291,-0.26937 -2.5311,-0.26937 h -2.8715 v 4.72663"
           inkscape:connector-curvature="0" />
      </g>
    </g>
  </g>
  <g
     transform="matrix(3.4122136,0,0,2.9147516,-1.3007845,49.652982)"
     id="layer1">
    <g
       id="g10305" />
    <g
       id="g16480">
      <g
         id="g13802"
         transform="translate(-13.74405,15.9939)">
        <g
           id="use14699"
           transform="translate(845.3001,0)" />
      </g>
      <g
         id="g10289">
        <path
           inkscape:connector-curvature="0"
           id="path4157"
           style="fill:#ffffff"
           d="m 122.434,113.059 1.181,-8.019 c -0.645,0 -1.594,0.276 -2.431,0.276 -3.284,0 -3.646,-1.746 -3.437,-3.037 l 2.653,-16.362 4.991,0 1.205,-8.87 -4.706,0 0.958,-5.516 -9.434,0 c -0.208,0.208 -5.569,31.023 -5.569,34.775 0,5.555 3.119,8.029 7.517,7.989 3.444,-0.029 6.126,-0.982 7.072,-1.236 z" />
        <path
           inkscape:connector-curvature="0"
           id="path4155"
           style="fill:#ffffff"
           d="m 125.423,97.77 c 0,13.332 8.8,16.5 16.297,16.5 6.92,0 9.965,-1.547 9.965,-1.547 l 1.662,-9.099 c 0,0 -5.264,2.319 -10.018,2.319 -10.13,0 -8.356,-7.553 -8.356,-7.553 l 19.172,0 c 0,0 1.238,-6.113 1.238,-8.604 0,-6.216 -3.094,-13.79 -13.452,-13.79 -9.486,0.002 -16.508,10.223 -16.508,21.774 z m 16.544,-13.325 c 5.324,0 4.342,5.983 4.342,6.467 l -10.474,0 c 0,-0.618 0.99,-6.467 6.132,-6.467 z" />
        <path
           inkscape:connector-curvature="0"
           id="path4151"
           style="fill:#ffffff"
           d="m 201.707,113.055 1.688,-10.285 c 0,0 -4.629,2.321 -7.806,2.321 -6.692,0 -9.376,-5.11 -9.376,-10.6 0,-11.137 5.758,-17.264 12.168,-17.264 4.807,0 8.665,2.699 8.665,2.699 l 1.54,-9.993 c 0,0 -5.721,-2.315 -10.625,-2.315 -10.891,0 -21.486,9.448 -21.486,27.192 0,11.766 5.721,19.537 16.979,19.537 3.183,0.001 8.253,-1.292 8.253,-1.292 z" />
        <path
           inkscape:connector-curvature="0"
           id="path4149"
           style="fill:#ffffff"
           d="m 70.547,76.143 c -6.469,0 -11.428,2.079 -11.428,2.079 l -1.369,8.127 c 0,0 4.093,-1.663 10.28,-1.663 3.513,0 6.083,0.395 6.083,3.25 0,1.734 -0.315,2.374 -0.315,2.374 0,0 -2.771,-0.232 -4.054,-0.232 -8.159,0 -16.73,3.482 -16.73,13.98 0,8.272 5.623,10.17 9.108,10.17 6.656,0 9.525,-4.319 9.678,-4.332 l -0.311,3.605 8.307,0 3.706,-25.981 c 0,-11.022 -9.615,-11.377 -12.955,-11.377 z m 2.021,21.154 c 0.18,1.587 -0.995,9.026 -6.675,9.026 -2.93,0 -3.692,-2.238 -3.692,-3.562 0,-2.582 1.403,-5.682 8.316,-5.682 1.608,0.002 1.78,0.174 2.051,0.218 z" />
        <path
           inkscape:connector-curvature="0"
           id="path4145"
           style="fill:#ffffff"
           d="m 92.331,114.038 c 2.125,0 14.273,0.54 14.273,-11.995 0,-11.719 -11.245,-9.404 -11.245,-14.112 0,-2.344 1.833,-3.082 5.183,-3.082 1.33,0 6.447,0.423 6.447,0.423 l 1.19,-8.33 c 0,0.001 -3.312,-0.741 -8.704,-0.741 -6.979,0 -14.063,2.786 -14.063,12.318 0,10.801 11.812,9.717 11.812,14.267 0,3.037 -3.3,3.284 -5.843,3.284 -4.401,0 -8.364,-1.51 -8.378,-1.438 l -1.258,8.246 c 0.228,0.07 2.672,1.16 10.586,1.16 z" />
        <path
           inkscape:connector-curvature="0"
           id="path4139"
           style="fill:#ffffff"
           d="m 279.852,68.668 -2.035,12.627 c 0,0 -3.551,-4.905 -9.11,-4.905 -8.644,0 -15.849,10.422 -15.849,22.397 0,7.73 3.843,15.304 11.699,15.304 5.651,0 8.784,-3.94 8.784,-3.94 l -0.415,3.365 9.176,0 7.207,-44.863 -9.457,0.015 z m -4.381,24.62 c 0,4.983 -2.467,11.639 -7.582,11.639 -3.395,0 -4.986,-2.85 -4.986,-7.323 0,-7.314 3.285,-12.14 7.43,-12.14 3.396,-0.001 5.138,2.332 5.138,7.824 z" />
        <path
           inkscape:connector-curvature="0"
           id="path4133"
           style="fill:#ffffff"
           d="m 19.466,113.555 5.743,-33.87 0.843,33.87 6.5,0 12.125,-33.87 -5.371,33.87 9.658,0 7.438,-44.923 -14.935,0 -9.301,27.563 -0.484,-27.563 -13.767,0 -7.545,44.923 9.096,0 z" />
        <path
           inkscape:connector-curvature="0"
           id="path4131"
           style="fill:#ffffff"
           d="m 164.818,113.617 c 2.746,-15.616 3.255,-28.296 9.808,-25.975 1.147,-6.044 2.254,-8.382 3.506,-10.94 0,0 -0.587,-0.123 -1.819,-0.123 -4.225,0 -7.355,5.772 -7.355,5.772 l 0.841,-5.301 -8.784,0 -5.885,36.567 9.688,0 z" />
        <g
           id="use8523"
           transform="translate(847.0062,0)">
          <path
             inkscape:connector-curvature="0"
             id="path4149_1_"
             style="fill:#ffffff"
             d="m -623.531,76.143 c -6.469,0 -11.428,2.079 -11.428,2.079 l -1.368,8.127 c 0,0 4.093,-1.663 10.28,-1.663 3.513,0 6.081,0.395 6.081,3.25 0,1.734 -0.313,2.374 -0.313,2.374 0,0 -2.771,-0.232 -4.055,-0.232 -8.158,0 -16.729,3.482 -16.729,13.98 0,8.272 5.622,10.17 9.107,10.17 6.656,0 9.525,-4.319 9.677,-4.332 l -0.309,3.605 c 0,0 8.304,0 8.307,0 l 3.705,-25.981 c 10e-4,-11.022 -9.615,-11.377 -12.955,-11.377 z m 2.024,21.154 c 0.18,1.587 -0.996,9.026 -6.678,9.026 -2.93,0 -3.69,-2.238 -3.69,-3.562 0,-2.582 1.403,-5.682 8.315,-5.682 1.608,0.002 1.779,0.174 2.053,0.218 z" />
        </g>
        <g
           id="use8525"
           transform="translate(442.2857,0)">
          <path
             inkscape:connector-curvature="0"
             id="path4131_1_"
             style="fill:#ffffff"
             d="m -198.263,113.617 c 2.747,-15.616 3.256,-28.296 9.807,-25.975 1.149,-6.044 2.257,-8.382 3.508,-10.94 0,0 -0.587,-0.123 -1.819,-0.123 -4.225,0 -7.355,5.772 -7.355,5.772 l 0.841,-5.301 -8.784,0 -5.885,36.567 9.687,0 z" />
        </g>
      </g>
    </g>
  </g>
</svg>
