<svg height='300px' width='300px'  fill="#000000" xmlns="http://www.w3.org/2000/svg" viewBox="0 0 100 100" x="0px" y="0px"><path d="m50 7.43c-3.418 10.505-7.01 21.563-10.615 32.656-11.332-.02-23.605.025-34.385.027 9.328 6.749 19.395 14.11 27.794 20.2-3.487 10.769-7.29 22.449-10.615 32.683 8.908-6.501 18.38-13.325 27.821-20.18 9.974 7.239 18.693 13.568 27.794 20.18-3.456-10.576-7.01-21.56-10.615-32.683 9.2-6.637 18.935-13.762 27.821-20.2-11.501-.001-23.911.002-34.36 0m-10.642-22.663c2.779 8.593 5.613 17.17 8.373 25.768 9.02 0 18.04 0 27.06 0l-21.906 15.909c3.089 9.387 5.408 16.592 8.373 25.741-7.289-5.321-14.635-10.563-21.906-15.909-7.305 5.299-14.604 10.606-21.906 15.909l8.373-25.741c-7.619-5.538-15.378-11.168-21.906-15.909 9.02 0 18.04 0 27.06 0 2.903-8.976 5.875-18.09 8.373-25.768"></path></svg>